<?xml version="1.0" encoding="utf-8" ?>
<svg baseProfile="full" height="200mm" version="1.1" viewBox="0,0,200,200" width="200mm" xmlns="http://www.w3.org/2000/svg" xmlns:ev="http://www.w3.org/2001/xml-events" xmlns:xlink="http://www.w3.org/1999/xlink"><defs /><rect fill="#1a1a1a" height="200" width="200" x="0" y="0" /><text alignment-baseline="middle" fill="#e1ed5e" style="dominant-baseline: central; font-size:9.0px; font-family:Arial;" text-anchor="middle" x="100.0" y="100.0">2022</text><line stroke="#e1ed5e" stroke-width="0.3" x1="100.0" x2="100.0" y1="15.0" y2="10.0" /><path d="M 100.0 14.0 a86.0,86.0 0 0,1 42.46469731375804,11.215312516191453" fill="none" id="id85" stroke="none" /><text fill="#e1ed5e" style="font-size:6.75px; font-family:Arial;" text-anchor="middle"><textPath startOffset="22.20632615414155" xlink:href="#id85">January</textPath></text><path d="M 100.0 79.0 l 0.0 -27.269556199009912 a48.26955619900991,48.26955619900991 0 0,0 0.8308810623376355,0.0071516556220532 l -0.4694005830651072 27.265515919996417" fill="#ff800b" stroke="none" /><path d="M 101.44485096284872 79.0497635885617 l 1.7206866966419836 -24.949834973699534 a46.009098902656234,46.009098902656234 0 0,0 0.7896252677674119,0.061290118035562516 l -2.1499021537717367 24.91651959347551" fill="#ff5307" stroke="none" /><path d="M 103.2404852339499 79.25152402106235 l 4.43932397378309 -28.424510584942972 a49.76908756526248,49.76908756526248 0 0,0 0.8452942843640955,0.13948079968098825 l -4.92794746428606 28.343883522322358" fill="#ff9e0e" stroke="none" /><path d="M 103.95276090670814 79.375362276772 l 5.210392166503054 -27.186681250489716 a48.681470769171305,48.681470769171305 0 0,0 0.8216356417685032,0.16481238019195724 l -5.677594217738682 27.092964914220552" fill="#ff880c" stroke="none" /><path d="M 104.66035177308747 79.52364482259891 l 6.519572107186084 -28.645278419182063 a50.377828309343364,50.377828309343364 0 0,0 0.843891747690277,0.1997219116294432 l -7.011687541838885 28.528810595411752" fill="#ffa90f" stroke="none" /><path d="M 105.71112130821622 79.79150937346287 l 7.630292195110004 -26.999371923826445 a49.05686089468785,49.05686089468785 0 0,0 0.8106290770589406,0.23664485650640885 l -8.09391148989237 26.864028738401334" fill="#ff900d" stroke="none" /><path d="M 106.0581310904928 79.89281104454417 l 7.892544197455619 -26.195682322981497 a48.35883817480844,48.35883817480844 0 0,0 0.7949608712694851,0.24699821237466515 l -8.342290441435821 26.05594397572431" fill="#ff820c" stroke="none" /><path d="M 107.08798089147638 80.2323363322302 l 9.282860856334368 -25.888962469324788 a48.50290681757425,48.50290681757425 0 0,0 0.7834782497108087,0.2885616514134315 l -9.727121431817753 25.72533755010503" fill="#ff850c" stroke="none" /><path d="M 108.09893153111575 80.62456947434976 l 13.637732887726383 -32.62614890351041 a56.361749823658435,56.361749823658435 0 0,0 0.8919011859885968,0.38186554141681966 l -14.197317831505297 32.3865638341308" fill="#e6ff1a" stroke="none" /><path d="M 108.43124777332544 80.76684994638697 l 10.223339729589712 -23.32122508489742 a46.46362532490329,46.46362532490329 0 0,0 0.7297397368101364,0.3274129485039484 l -10.62326158486663 23.14179180587694" fill="#ff5c08" stroke="none" /><path d="M 109.08828744355905 81.06846463323043 l 12.766696681666744 -26.5939178582081 a50.49957645815954,50.49957645815954 0 0,0 0.7804077887845876,0.3829427126827821 l -13.222575737461764 26.370219985390488" fill="#ffac0f" stroke="none" /><path d="M 110.36928655335952 81.73862282372117 l 21.312215810817907 -37.53299799179589 a64.16174789114814,64.16174789114814 0 0,0 0.9557144948136652,0.5536115224982762 l -21.9551270380969 37.16058231190756" fill="#66ff29" stroke="none" /><line stroke="#e1ed5e" stroke-width="0.3" x1="143.23703022742887" x2="145.7803849466894" y1="26.81831364943548" y2="22.513508569990506" /><path d="M 143.74570117128098 25.957352633546492 a86.0,86.0 0 0,1 28.547481713284135,27.462654790039103" fill="none" id="id86" stroke="none" /><text fill="#e1ed5e" style="font-size:6.75px; font-family:Arial;" text-anchor="middle"><textPath startOffset="19.985693538727396" xlink:href="#id86">February</textPath></text><path d="M 110.99172775467656 82.1063720568725 l 21.198081750556984 -34.50873205907829 a61.49952170370108,61.49952170370108 0 0,0 0.8972512184895395,0.5618586307041646 l -21.788952121418788 34.13872908705118" fill="#90ff24" stroke="none" /><path d="M 112.48926042617603 83.11751280151076 l 17.154395039705896 -23.18863125383117 a49.84416559036579,49.84416559036579 0 0,0 0.6853664060439134,0.5162037678965734 l -17.551007599508193 22.88991089642875" fill="#ff9f0e" stroke="none" /><path d="M 113.06298171725822 83.55741782278167 l 15.736063515402899 -19.80723261337047 a46.29723618818785,46.29723618818785 0 0,0 0.6197140832550789,0.5010990237665518 l -16.07468099722247 19.53342749233979" fill="#ff5808" stroke="none" /><path d="M 113.6212207817346 84.01681056812373 l 19.211950619625295 -22.543371921633284 a50.61929547116212,50.61929547116212 0 0,0 0.6583068333955304,0.5708771988573469 l -19.59715125166759 22.209329729356266" fill="#ffae10" stroke="none" /><path d="M 114.42810811169701 84.74124197986012 l 20.14647690380931 -21.30634270645246 a50.32304164237608,50.32304164237608 0 0,0 0.6242855038204297,0.6005621600544969 l -20.51024565124216 20.95639745963566" fill="#ffa80f" stroke="none" /><path d="M 114.94478906791727 85.2469230424477 l 17.910526590637428 -17.680769928644104 a46.16737149611727,46.16737149611727 0 0,0 0.5534274884031989,0.5703556744491384 l -18.212218342743736 17.36985005864485" fill="#ff5607" stroke="none" /><path d="M 115.4437574822437 85.77008943001954 l 18.927838767906707 -17.440150381796293 a46.73755865973969,46.73755865973969 0 0,0 0.5400555157555671,0.596342789176343 l -19.22523792427831 17.1117548053504" fill="#ff6109" stroke="none" /><path d="M 116.15771136456269 86.58626213691792 l 22.25401731437207 -18.47474236420461 a49.9233018870963,49.9233018870963 0 0,0 0.5432166553202937,0.6659193887623546 l -22.568732461768775 18.088938805834154" fill="#ffa10e" stroke="none" /><path d="M 116.60985879189232 87.15038557335679 l 19.832196113536273 -15.342458746061395 a46.074031248691526,46.074031248691526 0 0,0 0.47988091261689847,0.6314670299955435 l -20.093352966377285 14.998806940184817" fill="#ff5407" stroke="none" /><path d="M 117.04232023915458 87.72973835380427 l 21.26578041868888 -15.311101199023284 a47.204259896868365,47.204259896868365 0 0,0 0.4690920634273377,0.6634974568098202 l -21.5261851019201 14.942777241881672" fill="#ff6b09" stroke="none" /><path d="M 117.65298651832404 88.62581576622439 l 22.570204969495038 -14.542449757758439 a47.8495250855941,47.8495250855941 0 0,0 0.44015275139398363,0.696215949793399 l -22.817185317134978 14.151786160250833" fill="#ff780b" stroke="none" /><line stroke="#e1ed5e" stroke-width="0.3" x1="172.23445277983987" x2="176.4835382374775" y1="55.19839476539836" y2="52.563006222186495" /><path d="M 173.08426987136738 54.67131705675599 a86.0,86.0 0 0,1 12.851231095245387,41.99856678651699" fill="none" id="id87" stroke="none" /><text fill="#e1ed5e" style="font-size:6.75px; font-family:Arial;" text-anchor="middle"><textPath startOffset="22.20632615414155" xlink:href="#id87">March</textPath></text><path d="M 118.03404312379186 89.2402003453031 l 21.736552523328264 -12.968858326963586 a46.31144013888307,46.31144013888307 0 0,0 0.40255739803331747,0.6881010841367474 l -21.95656959583191 12.592777830472942" fill="#ff5908" stroke="none" /><path d="M 118.89224826269711 90.83032412892265 l 28.09403280399919 -13.635919406836607 a52.22840017134925,52.22840017134925 0 0,0 0.3855993093010247,0.8121704854721428 l -28.32459030714197 13.150306505723924" fill="#ffcd13" stroke="none" /><path d="M 119.196687751892 91.48605970444005 l 25.163435556466364 -11.16025799491423 a48.52725644733748,48.52725644733748 0 0,0 0.332086551301384,0.7665015464022447 l -25.35181281761043 10.725457303925383" fill="#ff850c" stroke="none" /><path d="M 119.47837535516314 92.15188598940014 l 26.43608965288456 -10.651475896077859 a49.5012416378669,49.5012416378669 0 0,0 0.31163730635193065,0.7930829527597405 l -26.61552050911819 10.194843938422334" fill="#ff980e" stroke="none" /><path d="M 119.85752413597 93.16781622104841 l 29.31840060271339 -10.087294853632976 a52.00519523185292,52.00519523185292 0 0,0 0.28395506777198554,0.8489895101550194 l -29.487692964257146 9.581132240555643" fill="#ffc812" stroke="none" /><path d="M 120.08093135843002 93.85539295169968 l 26.970591626643248 -8.25278889947156 a49.20498780908086,49.20498780908086 0 0,0 0.24085631330781393,0.812047752386794 l -27.108653837062768 7.787311760338235" fill="#ff930d" stroke="none" /><path d="M 120.53481517161879 95.60439243477599 l 30.22909031647552 -6.470728709970908 a51.913884120240795,51.913884120240795 0 0,0 0.17952489602853086,0.8754271500042355 l -30.33599450841905 5.94942590380326" fill="#ffc712" stroke="none" /><path d="M 120.6074358757038 95.95851677861258 l 26.158448300433278 -5.1301350901387215 a47.65675718330182,47.65675718330182 0 0,0 0.15094546213575877,0.8063566944890773 l -26.242879486478895 4.679100318187081" fill="#ff740a" stroke="none" /><path d="M 120.94382443527127 98.46500227214037 l 32.14255131672364 -2.3557657003508687 a53.2287641274555,53.2287641274555 0 0,0 0.05910777719131575,0.914371151428227 l -32.17833968491937 1.8021354846696067" fill="#ffdf14" stroke="none" /><path d="M 120.98425023603335 99.18683210126433 l 36.40175386461865 -1.410616884922373 a57.42907526161358,57.42907526161358 0 0,0 0.029776443741819245,0.9881352046570223 l -36.420642002816116 0.7838115328403515" fill="#d4ff1c" stroke="none" /><line stroke="#e1ed5e" stroke-width="0.3" x1="184.98032266829074" x2="189.97916517819016" y1="98.17113171792111" y2="98.06355123074" /><path d="M 185.9800911702706 98.14961562048488 a86.0,86.0 0 0,1 -9.607161424134198,41.387399972396054" fill="none" id="id88" stroke="none" /><text fill="#e1ed5e" style="font-size:6.75px; font-family:Arial;" text-anchor="middle"><textPath startOffset="21.466115282336823" xlink:href="#id88">April</textPath></text><path d="M 120.9904718944345 100.63252640178507 l 29.001448508442074 0.8739289885361611 a50.014612998708444,50.014612998708444 0 0,0 -0.03333799563116222,0.8603055331867874 l -28.98210837995971 -1.3730117687369547" fill="#ffa20f" stroke="none" /><path d="M 120.95626037817324 101.35467743843564 l 28.885333305975113 1.8672372181466983 a49.945622381045936,49.945622381045936 0 0,0 -0.06284453442660526,0.8574637420359621 l -28.84891221288417 -2.364174096679431" fill="#ffa10e" stroke="none" /><path d="M 120.89721153311464 102.0752229133903 l 28.872595494546108 2.867228081812943 a50.014612998708444,50.014612998708444 0 0,0 -0.09245010323454456,0.8559731367259303 l -28.818963089810513 -3.363797540423665" fill="#ffa20f" stroke="none" /><path d="M 120.76222939487914 103.15116336523771 l 30.89488103928525 4.689034855206083 a52.24869152948527,52.24869152948527 0 0,0 -0.14260968263753834,0.8880306299155238 l -30.80958960228642 -5.220144714814812" fill="#ffcd13" stroke="none" /><path d="M 120.64145759157962 103.86396538481128 l 26.22756281424441 4.90965303165146 a47.68313594887866,47.68313594887866 0 0,0 -0.15796756970923848,0.8054732346770336 l -26.13916531155951 -5.3603899933964385" fill="#ff740a" stroke="none" /><path d="M 120.49622156327973 104.57218783832717 l 26.94611104107397 6.010994797838111 a48.608421879881604,48.608421879881604 0 0,0 -0.18920118549859313,0.8150737552728621 l -26.838649289644824 -6.473937210459538" fill="#ff870c" stroke="none" /><path d="M 120.23288151984713 105.62410040840565 l 29.982073163716684 8.334066986924233 a52.11882683741469,52.11882683741469 0 0,0 -0.24770679405868357,0.8622998461967096 l -29.8341737327719 -8.848924308625525" fill="#ffcb12" stroke="none" /><path d="M 120.02730092923936 106.31721596034902 l 25.80907241051015 8.14096141709449 a48.06258434602241,48.06258434602241 0 0,0 -0.2556649098874252,0.7868556841939288 l -25.665115249606476 -8.584016001266214" fill="#ff7c0b" stroke="none" /><path d="M 119.79798401119884 107.00284435728193 l 25.341383825180383 8.963628146456612 a47.87996212279815,47.87996212279815 0 0,0 -0.2815244621978216,0.7746344100230319 l -25.183335101977335 -9.398510353485774" fill="#ff780b" stroke="none" /><path d="M 119.41010516605496 108.01547362559984 l 28.96164714045363 11.95981767343597 a52.3339152336566,52.3339152336566 0 0,0 -0.3510086005250195,0.8296806453767579 l -28.751487558736297 -12.45657284447889" fill="#ffcf13" stroke="none" /><path d="M 119.12269723197855 108.67885076344098 l 24.323655507019733 11.039309654171205 a47.7115438502691,47.7115438502691 0 0,0 -0.3458527639890668,0.7449360851261598 l -24.130028126190837 -11.456365806576196" fill="#ff750a" stroke="none" /><path d="M 118.97047184881838 109.00673069616215 l 29.60712657962886 14.056762420830955 a53.774601661314684,53.774601661314684 0 0,0 -0.4041974166228332,0.8327663975632182 l -29.360775906391314 -14.564317774359449" fill="#ffe915" stroke="none" /><line stroke="#e1ed5e" stroke-width="0.3" x1="174.80103733775053" x2="179.2010983576182" y1="140.37084112569926" y2="142.7455964860345" /><path d="M 175.68104954172406 140.8457921977663 a86.0,86.0 0 0,1 -30.038265399797805,32.042727171017184" fill="none" id="id89" stroke="none" /><text fill="#e1ed5e" style="font-size:6.75px; font-family:Arial;" text-anchor="middle"><textPath startOffset="22.206326154141568" xlink:href="#id89">May</textPath></text><path d="M 118.30583269289576 110.29060199501025 l 24.308762842187967 13.665142012203074 a48.886413486345205,48.886413486345205 0 0,0 -0.418672565751837,0.7299909084039177 l -24.06993828028375 -14.081552766465306" fill="#ff8c0c" stroke="none" /><path d="M 117.94076556474637 110.91462005526583 l 23.38192966989172 14.2248600030365 a48.36898385387646,48.36898385387646 0 0,0 -0.43885722702346835,0.7075775851449857 l -23.133607803200285 -14.62523391954676" fill="#ff820c" stroke="none" /><path d="M 117.55443506779139 111.5257021239791 l 23.42969800578487 15.383219056985535 a49.02845299329741,49.02845299329741 0 0,0 -0.46926508562710556,0.701487632289604 l -23.161429814747045 -15.784243603480945" fill="#ff8f0d" stroke="none" /><path d="M 116.93607887273984 112.41649034213515 l 36.84320059851758 27.011166388766053 a66.6839637074566,66.6839637074566 0 0,0 -0.6866502782786128,0.9198802585389736 l -36.37278905354388 -27.64135952681434" fill="#40ff2d" stroke="none" /><path d="M 116.498646956653 112.99209946851258 l 22.25011342940114 17.52117538001494 a49.320648550456234,49.320648550456234 0 0,0 -0.5309769144331374,0.6624753421882342 l -21.94521860291315 -17.901578555781427" fill="#ff950d" stroke="none" /><path d="M 116.27256486870786 113.27417163493432 l 21.50024497931034 17.538596057301373 a48.746403115206604,48.746403115206604 0 0,0 -0.5359875938144306,0.6456315848899499 l -21.19516138560237 -17.906088899305093" fill="#ff8a0c" stroke="none" /><path d="M 116.0416608686014 113.55231037782055 l 21.86787602955084 18.474411451762194 a49.62704805831028,49.62704805831028 0 0,0 -0.5569040763253218,0.6478052558949654 l -21.54662944365474 -18.84809380681869" fill="#ff9b0e" stroke="none" /><path d="M 115.32070863581623 114.36230785411682 l 27.955332782662207 26.206561663228715 a59.31820070407792,59.31820070407792 0 0,0 -0.7047382123645303,0.7389151981579666 l -27.500088018918714 -26.683883977969188" fill="#b4ff20" stroke="none" /><path d="M 114.81725581225074 114.88116024355365 l 19.20802223454451 19.290863332309552 a48.22288607529704,48.22288607529704 0 0,0 -0.5932564244823638,0.5806262752816853 l -18.873115857686354 -19.61863971051381" fill="#ff7f0b" stroke="none" /><path d="M 114.29624159901734 115.38237550388516 l 20.86715205262444 22.45250028456432 a51.65212560028601,51.65212560028601 0 0,0 -0.656475028271927,0.5996743734537174 l -20.47757747488565 -22.80836742460462" fill="#ffc212" stroke="none" /><path d="M 113.48314897796784 116.09983520530334 l 19.934390873902338 23.803075120831465 a52.04780708393858,52.04780708393858 0 0,0 -0.6918141762319281,0.5693159685695534 l -19.521706569125715 -24.142686208258194" fill="#ffc912" stroke="none" /><path d="M 112.92097659922987 116.55440617244103 l 19.566429583814323 25.06858674244751 a52.80061647078527,52.80061647078527 0 0,0 -0.7212847611095975,0.5530503976587838 l -19.13201609421123 -25.401676481933666" fill="#ffd714" stroke="none" /><path d="M 112.34349029814194 116.9893568818739 l 18.31384870969213 25.20685025826457 a52.15738041787314,52.15738041787314 0 0,0 -0.7308805575223709,0.5214638717098294 l -17.877240824320875 -25.51835839181862" fill="#ffcb12" stroke="none" /><path d="M 111.45004920935366 117.60387380957326 l 16.945115453685215 26.052261320557477 a52.07824412114263,52.07824412114263 0 0,0 -0.7556756524359343,0.48230795494064493 l -16.49415799920235 -26.34008370432193" fill="#ffca12" stroke="none" /><line stroke="#e1ed5e" stroke-width="0.3" x1="143.8653032363475" x2="146.44561519142675" y1="172.8068346515853" y2="177.08958963109032" /><path d="M 144.38136562736335 173.6633856474863 a86.0,86.0 0 0,1 -40.68145358897372,12.25698825130547" fill="none" id="id90" stroke="none" /><text fill="#e1ed5e" style="font-size:6.75px; font-family:Arial;" text-anchor="middle"><textPath startOffset="21.466115282336833" xlink:href="#id90">June</textPath></text><path d="M 110.8373102113329 117.98757091392108 l 16.334659442076102 27.111971452273906 a52.65248955639226,52.65248955639226 0 0,0 -0.7803403057281829,0.46103880723418345 l -15.865551265319537 -27.38912883180184" fill="#ffd513" stroke="none" /><path d="M 110.21172684928248 118.3499491758327 l 15.15493057567515 27.232632632202815 a52.16549696112756,52.16549696112756 0 0,0 -0.7883875591903436,0.42989175736763846 l -14.683920204616157 -27.489465041330224" fill="#ffcb13" stroke="none" /><path d="M 109.2508944713604 118.85261126421891 l 14.068658362913316 28.670843446136885 a52.93656857029667,52.93656857029667 0 0,0 -0.8214931950760341,0.39436665569574825 l -13.573052499837049 -28.908764378332194" fill="#ffda14" stroke="none" /><path d="M 108.59647513512805 119.15986991738527 l 10.585661332923713 23.593378790746943 a46.85930680855587,46.85930680855587 0 0,0 -0.7387689373420001,0.32385459171295067 l -10.17797172092396 -23.77209793575435" fill="#ff6409" stroke="none" /><path d="M 107.93186726928326 119.44442032107085 l 12.610687173167753 30.9142215329541 a54.387400677022775,54.387400677022775 0 0,0 -0.8698848388703945,0.3461451297635999 l -12.07668125825549 -31.12671350712377" fill="#fff417" stroke="none" /><path d="M 107.2578585660854 119.70592522655815 l 21.77357569825621 59.11777567967444 a84.0,84.0 0 0,0 -1.3611217574810608,0.4880498358401595 l -20.752734380145416 -59.48381305655456" fill="#4dd2ff" stroke="none" /><path d="M 106.57524785965236 119.94407469862006 l 19.664433586417573 59.646258319804296 a83.80418839398732,83.80418839398732 0 0,0 -1.3739044407632086,0.4398808154601371 l -18.634807800563426 -59.97591198192414" fill="#4dd5ff" stroke="none" /><path d="M 105.88484417918355 120.15858648285463 l 15.8544328955764 54.30950199032001 a77.57636475487718,77.57636475487718 0 0,0 -1.2850666376176265,0.3631726679744361 l -14.917235089854167 -54.57436345163296" fill="#41ffd0" stroke="none" /><path d="M 104.83641907484287 120.43548508189849 l 7.52079156321494 31.77785494098035 a53.65569430263755,53.65569430263755 0 0,0 -0.9005976720007594,0.2049730980530863 l -6.9726737418213185 -31.902604772611124" fill="#ffe715" stroke="none" /><path d="M 104.13013068566511 120.58985236759428 l 5.898024081936672 29.403293588041876 a50.98900401640057,50.98900401640057 0 0,0 -0.8620356060264591,0.16521117555700504 l -5.391020861338508 -29.50046196194735" fill="#ffb510" stroke="none" /><path d="M 103.41894727170886 120.7198165907248 l 5.153346384006031 31.23078053546897 a52.65309829713634,52.65309829713634 0 0,0 -0.8955142086491694,0.13986090221111847 l -4.614996311748345 -31.314859745027192" fill="#ffd513" stroke="none" /><path d="M 102.34483914955558 120.86867818915974 l 3.5184708807362837 31.313805273991253 a52.510855876602776,52.510855876602776 0 0,0 -0.899104385598452,0.09319584578331598 l -2.978933898532229 -31.369730488230328" fill="#ffd213" stroke="none" /><path d="M 101.62511606390274 120.93702456842531 l 2.1620512666752605 27.85457697086942 a48.93835936317344,48.93835936317344 0 0,0 -0.840428324416355,0.057960857810432385 l -1.6822601814799754 -27.887666173196138" fill="#ff8d0d" stroke="none" /><line stroke="#e1ed5e" stroke-width="0.3" x1="102.19456741930631" x2="102.32365962044197" y1="184.97166512339345" y2="189.96999836594603" /><path d="M 102.22038585953345 185.97133177190398 a86.0,86.0 0 0,1 -42.740103519485714,-10.115201625700543" fill="none" id="id91" stroke="none" /><text fill="#e1ed5e" style="font-size:6.75px; font-family:Arial;" text-anchor="middle"><textPath startOffset="22.20632615414155" xlink:href="#id91">July</textPath></text><path d="M 100.54218724476979 120.99299961872073 l 0.8625554555849041 33.39736691501777 a54.40850368948425,54.40850368948425 0 0,0 -0.9364488783811004,0.016121816686416247 l -0.2875468873111358 -33.407266208983344" fill="#fff517" stroke="none" /><path d="M 99.45781275523022 120.99299961872073 l -0.8126076669406165 31.46343372481478 a52.4739256047952,52.4739256047952 0 0,0 -0.902750542321493,-0.031092553984505965 l 1.3540785609367525 -31.444784372404182" fill="#ffd113" stroke="none" /><path d="M 98.73552117531835 120.96189622390904 l -2.1601952766889925 35.810634649997795 a56.87572992524406,56.87572992524406 0 0,0 -0.9767383913772957,-0.0673615980993086 l 2.7762964288452183 -35.7681447073822" fill="#ddff1b" stroke="none" /><path d="M 98.01472825383883 120.90594882070398 l -1.9940894355164476 20.998803696987096 a42.09327260956529,42.09327260956529 0 0,0 -0.720731844409252,-0.07470680256772984 l 2.3552538765312927 -20.961367525963606" fill="#ff0000" stroke="none" /><path d="M 97.2962882734958 120.8252237178851 l -4.234038845207871 32.61250277435336 a53.88620413106285,53.88620413106285 0 0,0 -0.918814715657318,-0.127339347331342 l 4.7947821520520195 -32.534788861529414" fill="#ffeb16" stroke="none" /><path d="M 96.58105272829116 120.7198165907248 l -4.505977747330123 27.307537983732367 a48.67680375680003,48.67680375680003 0 0,0 -0.8255377963541672,-0.14353032769881355 l 4.97536451515634 -27.225929077512546" fill="#ff880c" stroke="none" /><path d="M 95.86986931433489 120.58985236759428 l -6.169954471229159 30.758942354611907 a52.37165715978961,52.37165715978961 0 0,0 -0.8823590229631598,-0.18490691227801992 l 6.698504955621706 -30.648179461607345" fill="#ffcf13" stroke="none" /><line stroke="#e1ed5e" stroke-width="0.3" x1="58.666819895761336" x2="56.23545636021788" y1="174.27360380694188" y2="178.64263932499728" /><path d="M 58.180547188652646 175.14741091055294 a86.0,86.0 0 0,1 -31.652253787137756,-30.449443065178592" fill="none" id="id92" stroke="none" /><text fill="#e1ed5e" style="font-size:6.75px; font-family:Arial;" text-anchor="middle"><textPath startOffset="22.20632615414155" xlink:href="#id92">August</textPath></text><line stroke="#e1ed5e" stroke-width="0.3" x1="26.63291911575756" x2="22.317208475507996" y1="142.92168965132927" y2="145.44649492493687" /><path d="M 25.769776987707644 143.4266507060508 a86.0,86.0 0 0,1 -11.730757126820373,-40.83630448921669" fill="none" id="id93" stroke="none" /><text fill="#e1ed5e" style="font-size:6.75px; font-family:Arial;" text-anchor="middle"><textPath startOffset="21.46611528233685" xlink:href="#id93">September</textPath></text><line stroke="#e1ed5e" stroke-width="0.3" x1="15.007084014347285" x2="10.007500721073583" y1="101.09737516637583" y2="101.16192664675087" /><path d="M 14.007167355692545 101.11028546245083 a86.0,86.0 0 0,1 10.666146001902534,-42.60595125391555" fill="none" id="id94" stroke="none" /><text fill="#e1ed5e" style="font-size:6.75px; font-family:Arial;" text-anchor="middle"><textPath startOffset="22.20632615414155" xlink:href="#id94">October</textPath></text><line stroke="#e1ed5e" stroke-width="0.3" x1="26.266209847984243" x2="21.928928074336255" y1="57.711370442889674" y2="55.22380399835377" /><path d="M 25.398753493254645 57.213857153982495 a86.0,86.0 0 0,1 29.58750427330803,-30.492523968695096" fill="none" id="id95" stroke="none" /><text fill="#e1ed5e" style="font-size:6.75px; font-family:Arial;" text-anchor="middle"><textPath startOffset="21.46611528233685" xlink:href="#id95">November</textPath></text><line stroke="#e1ed5e" stroke-width="0.3" x1="56.762969772571076" x2="54.21961505331055" y1="26.818313649435495" y2="22.513508569990535" /><path d="M 56.25429882871897 25.957352633546506 a86.0,86.0 0 0,1 42.265352541879196,-11.944610805530505" fill="none" id="id96" stroke="none" /><text fill="#e1ed5e" style="font-size:6.75px; font-family:Arial;" text-anchor="middle"><textPath startOffset="22.20632615414155" xlink:href="#id96">December</textPath></text></svg>