<?xml version="1.0" encoding="utf-8" ?>
<svg baseProfile="full" height="200mm" version="1.1" viewBox="0,0,200,200" width="200mm" xmlns="http://www.w3.org/2000/svg" xmlns:ev="http://www.w3.org/2001/xml-events" xmlns:xlink="http://www.w3.org/1999/xlink"><defs /><rect fill="#1a1a1a" height="200" width="200" x="0" y="0" /><text alignment-baseline="middle" fill="#e1ed5e" style="dominant-baseline: central; font-size:9.0px; font-family:Arial;" text-anchor="middle" x="100.0" y="100.0">2025</text><line stroke="#e1ed5e" stroke-width="0.3" x1="100.0" x2="100.0" y1="15.0" y2="10.0" /><path d="M 100.0 14.0 a86.0,86.0 0 0,1 42.46469731375804,11.215312516191453" fill="none" id="id121" stroke="none" /><text fill="#e1ed5e" style="font-size:6.75px; font-family:Arial;" text-anchor="middle"><textPath startOffset="22.20632615414155" xlink:href="#id121">January</textPath></text><path d="M 100.0 79.0 l 0.0 -24.63398709211173 a45.63398709211173,45.63398709211173 0 0,0 0.785514072627282,0.006761167618746371 l -0.4240335933547536 24.630337301101545" fill="red" stroke="none" /><path d="M 100.36148047927253 79.00311137660856 l 0.5010408107533019 -29.103364365159358 a50.10767698160174,50.10767698160174 0 0,0 0.8622657063528615,0.022269779263466204 l -1.0019331523010313 29.090427793753534" fill="red" stroke="none" /><path d="M 100.72285384407766 79.0124445844662 l 0.9165164805200708 -26.610414514304516 a47.6261931766855,47.6261931766855 0 0,0 0.819077918293173,0.035271218137873435 l -1.3744352312025754 26.59069556964245" fill="red" stroke="none" /><path d="M 101.08401301168833 79.027996857942 l 1.4469972640940976 -27.994526672578186 a49.031898342851974,49.031898342851974 0 0,0 0.842503320930435,0.05082210109529398 l -1.9286626338641444 27.96547130210259" fill="red" stroke="none" /><path d="M 101.44485096284872 79.0497635885617 l 1.9554411552073292 -28.3537579609441 a49.42110730811309,49.42110730811309 0 0,0 0.8481834250676408,0.06583535806191541 l -2.443214769637311 28.31589734069372" fill="red" stroke="none" /><path d="M 101.80526077348638 79.07773832637324 l 2.3393201811141155 -27.11179996070238 a48.212536008591876,48.212536008591876 0 0,0 0.826213346130906,0.07845891264933288 l -2.8056586543352657 27.067515503537873" fill="red" stroke="none" /><path d="M 102.16513564639614 79.11191278185805 l 6.4954069391883955 -62.66426165442583 a84.0,84.0 0 0,0 1.436933185961099,0.1614561861175967 l -7.57310682865922 62.54316951483763" fill="red" stroke="none" /><path d="M 102.52436894288641 79.15227682838746 l 5.516306990025133 -45.556906957577866 a66.88966565959711,66.88966565959711 0 0,0 1.1418552359047656,0.14824558108513866 l -6.299676954437745 45.45520305332859" fill="red" stroke="none" /><path d="M 102.88285421437855 79.19881850522331 l 5.316254416387342 -38.35933584019933 a59.72597587047947,59.72597587047947 0 0,0 1.017136268831099,0.14989944605919725 l -5.975759665647097 38.26214190997916" fill="red" stroke="none" /><path d="M 103.95276090670814 79.375362276772 l 4.866491447634381 -25.392282877598756 a46.85441487920184,46.85441487920184 0 0,0 0.790798976092974,0.15862683515373513 l -5.30285683319448 25.304752086367813" fill="red" stroke="none" /><path d="M 105.01212808612495 79.60689891045804 l 5.860181325441112 -23.843618542710022 a45.553204890142425,45.553204890142425 0 0,0 0.7598515602346068,0.19370308150454266 l -6.269741774360744 23.739212465036612" fill="red" stroke="none" /><path d="M 105.71112130821622 79.79150937346287 l 5.651633446874624 -19.997996080293664 a41.78126097822923,41.78126097822923 0 0,0 0.6904050607283807,0.20154816937992315 l -5.995028725326431 19.89774958199504" fill="red" stroke="none" /><path d="M 106.40334571778207 80.00007090966166 l 8.033570476222716 -25.09170158039532 a47.346380070059915,47.346380070059915 0 0,0 0.7740393134614677,0.2551885919017526 l -8.464292611926602 24.94969926423433" fill="red" stroke="none" /><line stroke="#e1ed5e" stroke-width="0.3" x1="143.23703022742887" x2="145.7803849466894" y1="26.81831364943548" y2="22.513508569990506" /><path d="M 143.74570117128098 25.957352633546492 a86.0,86.0 0 0,1 28.547481713284135,27.462654790039103" fill="none" id="id122" stroke="none" /><text fill="#e1ed5e" style="font-size:6.75px; font-family:Arial;" text-anchor="middle"><textPath startOffset="19.985693538727396" xlink:href="#id122">February</textPath></text><line stroke="#e1ed5e" stroke-width="0.3" x1="172.23445277983987" x2="176.4835382374775" y1="55.19839476539836" y2="52.563006222186495" /><path d="M 173.08426987136738 54.67131705675599 a86.0,86.0 0 0,1 12.851231095245387,41.99856678651699" fill="none" id="id123" stroke="none" /><text fill="#e1ed5e" style="font-size:6.75px; font-family:Arial;" text-anchor="middle"><textPath startOffset="22.20632615414155" xlink:href="#id123">March</textPath></text><line stroke="#e1ed5e" stroke-width="0.3" x1="184.98032266829074" x2="189.97916517819016" y1="98.17113171792111" y2="98.06355123074" /><path d="M 185.9800911702706 98.14961562048488 a86.0,86.0 0 0,1 -9.607161424134198,41.387399972396054" fill="none" id="id124" stroke="none" /><text fill="#e1ed5e" style="font-size:6.75px; font-family:Arial;" text-anchor="middle"><textPath startOffset="21.466115282336823" xlink:href="#id124">April</textPath></text><line stroke="#e1ed5e" stroke-width="0.3" x1="174.80103733775053" x2="179.2010983576182" y1="140.37084112569926" y2="142.7455964860345" /><path d="M 175.68104954172406 140.8457921977663 a86.0,86.0 0 0,1 -30.038265399797805,32.042727171017184" fill="none" id="id125" stroke="none" /><text fill="#e1ed5e" style="font-size:6.75px; font-family:Arial;" text-anchor="middle"><textPath startOffset="22.206326154141568" xlink:href="#id125">May</textPath></text><line stroke="#e1ed5e" stroke-width="0.3" x1="143.8653032363475" x2="146.44561519142675" y1="172.8068346515853" y2="177.08958963109032" /><path d="M 144.38136562736335 173.6633856474863 a86.0,86.0 0 0,1 -40.68145358897372,12.25698825130547" fill="none" id="id126" stroke="none" /><text fill="#e1ed5e" style="font-size:6.75px; font-family:Arial;" text-anchor="middle"><textPath startOffset="21.466115282336833" xlink:href="#id126">June</textPath></text><line stroke="#e1ed5e" stroke-width="0.3" x1="102.19456741930631" x2="102.32365962044197" y1="184.97166512339345" y2="189.96999836594603" /><path d="M 102.22038585953345 185.97133177190398 a86.0,86.0 0 0,1 -42.740103519485714,-10.115201625700543" fill="none" id="id127" stroke="none" /><text fill="#e1ed5e" style="font-size:6.75px; font-family:Arial;" text-anchor="middle"><textPath startOffset="22.20632615414155" xlink:href="#id127">July</textPath></text><line stroke="#e1ed5e" stroke-width="0.3" x1="58.666819895761336" x2="56.23545636021788" y1="174.27360380694188" y2="178.64263932499728" /><path d="M 58.180547188652646 175.14741091055294 a86.0,86.0 0 0,1 -31.652253787137756,-30.449443065178592" fill="none" id="id128" stroke="none" /><text fill="#e1ed5e" style="font-size:6.75px; font-family:Arial;" text-anchor="middle"><textPath startOffset="22.20632615414155" xlink:href="#id128">August</textPath></text><line stroke="#e1ed5e" stroke-width="0.3" x1="26.63291911575756" x2="22.317208475507996" y1="142.92168965132927" y2="145.44649492493687" /><path d="M 25.769776987707644 143.4266507060508 a86.0,86.0 0 0,1 -11.730757126820373,-40.83630448921669" fill="none" id="id129" stroke="none" /><text fill="#e1ed5e" style="font-size:6.75px; font-family:Arial;" text-anchor="middle"><textPath startOffset="21.46611528233685" xlink:href="#id129">September</textPath></text><line stroke="#e1ed5e" stroke-width="0.3" x1="15.007084014347285" x2="10.007500721073583" y1="101.09737516637583" y2="101.16192664675087" /><path d="M 14.007167355692545 101.11028546245083 a86.0,86.0 0 0,1 10.666146001902534,-42.60595125391555" fill="none" id="id130" stroke="none" /><text fill="#e1ed5e" style="font-size:6.75px; font-family:Arial;" text-anchor="middle"><textPath startOffset="22.20632615414155" xlink:href="#id130">October</textPath></text><line stroke="#e1ed5e" stroke-width="0.3" x1="26.266209847984243" x2="21.928928074336255" y1="57.711370442889674" y2="55.22380399835377" /><path d="M 25.398753493254645 57.213857153982495 a86.0,86.0 0 0,1 29.58750427330803,-30.492523968695096" fill="none" id="id131" stroke="none" /><text fill="#e1ed5e" style="font-size:6.75px; font-family:Arial;" text-anchor="middle"><textPath startOffset="21.46611528233685" xlink:href="#id131">November</textPath></text><line stroke="#e1ed5e" stroke-width="0.3" x1="56.762969772571076" x2="54.21961505331055" y1="26.818313649435495" y2="22.513508569990535" /><path d="M 56.25429882871897 25.957352633546506 a86.0,86.0 0 0,1 42.265352541879196,-11.944610805530505" fill="none" id="id132" stroke="none" /><text fill="#e1ed5e" style="font-size:6.75px; font-family:Arial;" text-anchor="middle"><textPath startOffset="22.20632615414155" xlink:href="#id132">December</textPath></text></svg>