<?xml version="1.0" encoding="utf-8" ?>
<svg baseProfile="full" height="200mm" version="1.1" viewBox="0,0,200,200" width="200mm" xmlns="http://www.w3.org/2000/svg" xmlns:ev="http://www.w3.org/2001/xml-events" xmlns:xlink="http://www.w3.org/1999/xlink"><defs /><rect fill="#1a1a1a" height="200" width="200" x="0" y="0" /><text alignment-baseline="middle" fill="#e1ed5e" style="dominant-baseline: central; font-size:9.0px; font-family:Arial;" text-anchor="middle" x="100.0" y="100.0">2017</text><line stroke="#e1ed5e" stroke-width="0.3" x1="100.0" x2="100.0" y1="15.0" y2="10.0" /><path d="M 100.0 14.0 a86.0,86.0 0 0,1 42.46469731375804,11.215312516191453" fill="none" id="id25" stroke="none" /><text fill="#e1ed5e" style="font-size:6.75px; font-family:Arial;" text-anchor="middle"><textPath startOffset="22.20632615414155" xlink:href="#id25">January</textPath></text><path d="M 100.36148047927253 79.00311137660856 l 0.35937902564797675 -20.87482397472568 a41.87791726345944,41.87791726345944 0 0,0 0.7206458986917748,0.018612157450711066 l -0.7186515595346193 20.865545025132608" fill="#fff517" stroke="none" /><path d="M 102.88285421437855 79.19881850522331 l 2.5770564676515733 -18.594703484672724 a39.772432386890216,39.772432386890216 0 0,0 0.6773264545407571,0.09982031262495399 l -2.896751902620986 18.5475886878868" fill="#ffda14" stroke="none" /><path d="M 104.307194497241 79.44645832069477 l 3.8535764062854687 -18.3889172712564 a39.78835622209117,39.78835622209117 0 0,0 0.669121309228702,0.14624400158564863 l -4.169540439667698 18.31985977157488" fill="#ffda14" stroke="none" /><path d="M 105.36241919743992 79.69619591428918 l 3.963645093869786 -15.007605800315202 a36.522200690875394,36.522200690875394 0 0,0 0.6064461176715951,0.16576463259446012 l -4.221389100765092 14.937154626894449" fill="#ffaf10" stroke="none" /><path d="M 105.71112130821622 79.79150937346287 l 4.536561773853102 -16.05237590588861 a37.681102030499616,37.681102030499616 0 0,0 0.6226529053116666,0.18176945732735458 l -4.812204896888196 15.971908119642553" fill="#ffbe11" stroke="none" /><path d="M 106.0581310904928 79.89281104454417 l 4.388559366084505 -14.5658109898904 a36.21257056196815,36.21257056196815 0 0,0 0.5952909071303167,0.18495978257304332 l -4.63863564592554 14.488111072434835" fill="#ffaa0f" stroke="none" /><path d="M 107.4271985657038 80.35727306442388 l 5.022385684416439 -13.28271348765135 a35.20052236919707,35.20052236919707 0 0,0 0.564912792344058,0.21917738698269199 l -5.250281641760164 13.19429339677811" fill="#ff9d0e" stroke="none" /><path d="M 107.76421540070413 80.48803036053334 l 6.904650227856783 -17.351827411287438 a39.67512006066223,39.67512006066223 0 0,0 0.632376317158143,0.25796217779251984 l -7.202310414603313 17.23040434731134" fill="#ffd814" stroke="none" /><path d="M 108.09893153111575 80.62456947434976 l 7.298523182813554 -17.460578389279217 a39.92459347881035,39.92459347881035 0 0,0 0.6317900417441686,0.270499524098039 l -7.597996982348038 17.332359337218385" fill="#ffdc14" stroke="none" /><path d="M 108.76106565485865 80.91482961587045 l 9.700726669150933 -21.1321349050662 a44.25233802342236,44.25233802342236 0 0,0 0.6895394858190037,0.323748034307093 l -10.063044366269533 20.9620218881191" fill="#ebff1a" stroke="none" /><path d="M 109.08828744355905 81.06846463323043 l 10.08295299155663 -21.00349294040118 a44.29834021400286,44.29834021400286 0 0,0 0.6845754391995803,0.33591819493674374 l -10.442999697766641 20.826819585329606" fill="#ebff1a" stroke="none" /><path d="M 109.73455568895987 81.39251694778311 l 18.543143446936863 -35.44498983297429 a61.002443339792734,61.002443339792734 0 0,0 0.9262348206080451,0.49476256362562315 l -19.15052331407322 35.120548542846905" fill="#30ff2f" stroke="none" /><line stroke="#e1ed5e" stroke-width="0.3" x1="143.23703022742887" x2="145.7803849466894" y1="26.81831364943548" y2="22.513508569990506" /><path d="M 143.74570117128098 25.957352633546492 a86.0,86.0 0 0,1 28.547481713284135,27.462654790039103" fill="none" id="id26" stroke="none" /><text fill="#e1ed5e" style="font-size:6.75px; font-family:Arial;" text-anchor="middle"><textPath startOffset="19.985693538727396" xlink:href="#id26">February</textPath></text><path d="M 111.2981086023043 82.29822771554956 l 9.648464806888223 -15.117125610850927 a38.93377706630719,38.93377706630719 0 0,0 0.5618199172311833,0.3654233022048686 l -9.907251749903685 14.94880338448653" fill="#ffcf13" stroke="none" /><path d="M 111.90073688211348 82.69761687909136 l 19.811834194429192 -28.804262202884303 a55.95989552616059,55.95989552616059 0 0,0 0.7889515474975388,0.5527109775939207 l -20.30471688151038 28.458966382526445" fill="#64ff29" stroke="none" /><path d="M 112.19680574252982 82.90503203632743 l 10.965718601275231 -15.369483793103887 a39.88036060325217,39.88036060325217 0 0,0 0.5553903925676639,0.4035147398459979 l -11.228654310196683 15.178449818441216" fill="#ffdb14" stroke="none" /><path d="M 112.77801427241765 83.33499621200491 l 11.265409162235933 -14.692273960534225 a39.51411239363047,39.51411239363047 0 0,0 0.5362016973312362,0.4185139298574216 l -11.5166434147266 14.496181641453578" fill="#ffd614" stroke="none" /><path d="M 113.34407831869373 83.78471172551755 l 11.942101263894578 -14.51165153353716 a39.79366416715814,39.79366416715814 0 0,0 0.5251673381289486,0.4398125426788785 l -12.190126138982643 14.303937833464463" fill="#ffda14" stroke="none" /><path d="M 114.16331599549186 84.49514656593476 l 12.663333839764055 -13.862794223801528 a39.775971016934875,39.775971016934875 0 0,0 0.5015411209375726,0.46612781198550907 l -12.900082844496476 13.642761825741378" fill="#ffda14" stroke="none" /><path d="M 114.42810811169701 84.74124197986012 l 9.2423039829162 -9.77439862053446 a34.45210211475272,34.45210211475272 0 0,0 0.42739761398424403,0.411156166026157 l -9.40918484051286 9.613859367746" fill="#ff920d" stroke="none" /><path d="M 114.94478906791727 85.2469230424477 l 12.669514500074442 -12.506989666095816 a38.802847754654984,38.802847754654984 0 0,0 0.46514587856829687,0.4793737153416836 l -12.882924642345847 12.287051755204017" fill="#ffcd13" stroke="none" /><path d="M 115.19652480421416 85.50635884689758 l 13.534624964643012 -12.908609034412809 a39.703429101019466,39.703429101019466 0 0,0 0.46742786207623327,0.4986194527977463 l -13.754820148689706 12.67372016473701" fill="#ffd914" stroke="none" /><path d="M 115.4437574822437 85.77008943001954 l 29.13742196477235 -26.84728177551374 a60.62027129497009,60.62027129497009 0 0,0 0.7004711589193181,0.7734777489738571 l -29.595236764307707 26.341751239270334" fill="#33ff2f" stroke="none" /><path d="M 115.9244219780498 86.31012108654704 l 14.144010151874724 -12.159297624536283 a39.652118965371976,39.652118965371976 0 0,0 0.44049611939845107,0.5214084657394972 l -14.351216884760293 11.914030209167679" fill="#ffd814" stroke="none" /><path d="M 116.15771136456269 86.58626213691792 l 11.34402298432058 -9.417531183171532 a35.74370208105148,35.74370208105148 0 0,0 0.38892808687104125,0.4767798471292566 l -11.504449563268029 9.220867166434175" fill="#ffa40f" stroke="none" /><path d="M 116.60985879189232 87.15038557335679 l 14.8899568241414 -11.519074690326375 a39.82551183756003,39.82551183756003 0 0,0 0.41479988722684547,0.5458280292942805 l -15.08603265159236 11.261061885151062" fill="#ffda14" stroke="none" /><path d="M 116.82858285166822 87.43820079747576 l 18.72851553523341 -13.980015642947402 a44.37088212991827,44.37088212991827 0 0,0 0.4516055441387882,0.6159894546807887 l -18.966383691885824 13.655563744595119" fill="#eaff1a" stroke="none" /><path d="M 117.2510076193507 88.02491185347247 l 51.75302285805209 -35.92526443958259 a84.0,84.0 0 0,0 0.8143021373250665,1.1948879069183742 l -52.36374946104589 35.02909850939381" fill="#4dd2ff" stroke="none" /><path d="M 117.65298651832404 88.62581576622439 l 15.720959432023347 -10.129339232539238 a39.70165978599714,39.70165978599714 0 0,0 0.3652030978041116,0.5776635970124634 l -15.892990126073416 9.85722798781257" fill="#ffd914" stroke="none" /><line stroke="#e1ed5e" stroke-width="0.3" x1="172.23445277983987" x2="176.4835382374775" y1="55.19839476539836" y2="52.563006222186495" /><path d="M 173.08426987136738 54.67131705675599 a86.0,86.0 0 0,1 12.851231095245387,41.99856678651699" fill="none" id="id27" stroke="none" /><text fill="#e1ed5e" style="font-size:6.75px; font-family:Arial;" text-anchor="middle"><textPath startOffset="22.20632615414155" xlink:href="#id27">March</textPath></text><path d="M 118.03404312379186 89.2402003453031 l 11.907725668645785 -7.104604422770208 a34.86612182997725,34.86612182997725 0 0,0 0.3030701537524417,0.5180451343966753 l -12.028255496868553 6.898579876019638" fill="#ff980e" stroke="none" /><path d="M 118.3937258080291 89.86733742301442 l 33.361002230132485 -18.3777763328645 a59.088044485634846,59.088044485634846 0 0,0 0.4830923176763121,0.8950966956465758 l -33.67240264702726 17.800798653885465" fill="#43ff2d" stroke="none" /><path d="M 118.56541770881063 90.18545643968196 l 32.81053179374942 -17.345173622144355 a58.11315190833263,58.11315190833263 0 0,0 0.4598979836427651,0.8883765218096701 l -33.1042392105523 16.77782437807434" fill="#4dff2c" stroke="none" /><path d="M 118.73160827565052 90.50648371742162 l 9.406048135721383 -4.767154523899841 a31.54511753306934,31.54511753306934 0 0,0 0.2413051081854989,0.48645637346467463 l -9.486713256860291 4.6045385619362165" fill="#ff6a09" stroke="none" /><path d="M 118.89224826269711 90.83032412892265 l 22.764928355640247 -11.049347401478485 a46.30474344932176,46.30474344932176 0 0,0 0.341865288479855,0.7200554840569061 l -22.951751837961858 10.655849501781038" fill="#d2ff1c" stroke="none" /><path d="M 119.196687751892 91.48605970444005 l 17.09085849475464 -7.579982062783886 a39.696351840930156,39.696351840930156 0 0,0 0.27165402594739363,0.6270149458298914 l -17.21880323054472 7.284667972367392" fill="#ffd914" stroke="none" /><path d="M 119.61058180528143 92.48833698450437 l 35.572990670461635 -13.625925075711603 a59.09335243070183,59.09335243070183 0 0,0 0.3556727903474781,0.9530262487452438 l -35.80226804931074 13.011575689937025" fill="#43ff2d" stroke="none" /><path d="M 119.97218684219823 93.5106431181261 l 25.286212122142786 -8.215988361607469 a47.58749684050889,47.58749684050889 0 0,0 0.2464228248858646,0.7812276959975593 l -25.423890430796856 7.77951049918349" fill="#c3ff1e" stroke="none" /><path d="M 120.18372546131832 94.20196356495316 l 17.491768480505538 -5.024736942530278 a39.19917431965625,39.19917431965625 0 0,0 0.1807142217627623,0.6501252062307795 l -17.575669472834665 4.722900432880547" fill="#ffd213" stroke="none" /><path d="M 120.67395015179393 96.31383870115 l 14.685489403469097 -2.6184199099001004 a35.917094953239534,35.917094953239534 0 0,0 0.10328411922988227,0.609588718273527 l -14.728385384219202 2.3652454033107357" fill="#ffa60f" stroke="none" /><path d="M 120.78858239683441 97.02765380044208 l 26.966131483837113 -3.855610589636332 a48.24037408374758,48.24037408374758 0 0,0 0.11045667585205968,0.8230305336259944 l -27.02850415874701 3.3908617139456734" fill="#bbff1f" stroke="none" /><path d="M 120.83666639777658 97.38593545837742 l 29.047390868448165 -3.644141200243252 a50.27508635942371,50.27508635942371 0 0,0 0.10033386295416809,0.8595992649338032 l -29.105815084405922 3.143598196984596" fill="#a3ff21" stroke="none" /><path d="M 120.91429891909075 98.10471618934814 l 12.022770370288669 -1.089520721213048 a33.0720363973376,33.0720363973376 0 0,0 0.04649852122723094,0.5673997354075647 l -12.039743375335394 0.8824070685977146" fill="#ff7f0b" stroke="none" /><path d="M 120.98425023603335 99.18683210126433 l 18.894488353904155 -0.7321868172371797 a39.9086696436094,39.9086696436094 0 0,0 0.02069227566420675,0.6866758913709429 l -18.904292324024006 0.4068407784412378" fill="#ffdb14" stroke="none" /><line stroke="#e1ed5e" stroke-width="0.3" x1="184.98032266829074" x2="189.97916517819016" y1="98.17113171792111" y2="98.06355123074" /><path d="M 185.9800911702706 98.14961562048488 a86.0,86.0 0 0,1 -9.607161424134198,41.387399972396054" fill="none" id="id28" stroke="none" /><text fill="#e1ed5e" style="font-size:6.75px; font-family:Arial;" text-anchor="middle"><textPath startOffset="21.466115282336823" xlink:href="#id28">April</textPath></text><path d="M 120.99980553446 99.90962569577887 l 38.15846372581504 -0.16421793067125387 a59.15881708652793,59.15881708652793 0 0,0 -0.004382549147205093,1.0183500789267503 l -38.15563687937833 -0.4926416264591811" fill="#42ff2d" stroke="none" /><path d="M 120.9904718944345 100.63252640178507 l 38.35903070100972 1.1559101571082802 a59.37644283427416,59.37644283427416 0 0,0 -0.03957826469344275,1.021339149672 l -38.33345030346507 -1.8160265537942861" fill="#40ff2d" stroke="none" /><path d="M 120.9764740272857 100.99374915477107 l 19.845380980064977 0.9401642310998636 a40.86763838571068,40.86763838571068 0 0,0 -0.039337338208766386,0.702394599046625 l -19.826257290968684 -1.281630546481912" fill="#ffe815" stroke="none" /><path d="M 120.89721153311464 102.0752229133903 l 23.534672387155066 2.337139159431135 a44.65043390344595,44.65043390344595 0 0,0 -0.082534622910056,0.7641681035399278 l -23.49095546274396 -2.741903584855854" fill="#e6ff1a" stroke="none" /><path d="M 120.81339534386255 102.79330883721812 l 16.35751552511162 2.195297399407748 a37.50417052826691,37.50417052826691 0 0,0 -0.09137792742447563,0.6390970115790094 l -16.317303546670544 -2.4765398829671668" fill="#ffbc11" stroke="none" /><path d="M 120.70491114924044 103.5080841355445 l 18.180687842057786 3.080398758163685 a39.43980116269273,39.43980116269273 0 0,0 -0.11917122367656453,0.6683755099339312 l -18.124970176042034 -3.3928930188308346" fill="#ffd513" stroke="none" /><path d="M 120.5718875245553 104.21870165774334 l 19.939253018997732 4.088966540625102 a41.35420001685062,41.35420001685062 0 0,0 -0.14900501414555495,0.6961018197645868 l -19.86591396612773 -4.431582179805858" fill="#ffee16" stroke="none" /><path d="M 120.49622156327973 104.57218783832717 l 37.214051283905825 8.30151216749098 a59.12873873114837,59.12873873114837 0 0,0 -0.23014998291067948,0.9914801027945327 l -37.06564073506459 -8.940860927634079" fill="#43ff2d" stroke="none" /><path d="M 120.23288151984713 105.62410040840565 l 36.10347945984011 10.03562410899178 a58.472322857865024,58.472322857865024 0 0,0 -0.277903255218484,0.9674176888975123 l -35.92538356773552 -10.655599273393873" fill="#49ff2c" stroke="none" /><path d="M 120.02730092923936 106.31721596034902 l 17.87591423408558 5.638603579403279 a39.74412334653299,39.74412334653299 0 0,0 -0.21141555020827738,0.6506701583788681 l -17.77620643286106 -5.945472637759942" fill="#ffd914" stroke="none" /><path d="M 119.9155931802556 106.66101706037122 l 18.287981301845633 6.116642087874798 a40.28376442834274,40.28376442834274 0 0,0 -0.2256066695664775,0.6557185859013236 l -18.179983801335926 -6.430533376865421" fill="#ffe015" stroke="none" /><path d="M 119.79798401119884 107.00284435728193 l 35.54596337338 12.57314122956254 a58.70410312578987,58.70410312578987 0 0,0 -0.3451682150229659,0.9497546838936368 l -35.3242708973518 -13.183143710462307" fill="#47ff2c" stroke="none" /><path d="M 119.54520255179757 107.68017299344265 l 35.84302626526463 14.08430747116629 a59.51091077597102,59.51091077597102 0 0,0 -0.38284611757120274,0.950192666830143 l -35.59527753343604 -14.699199505839246" fill="#3fff2d" stroke="none" /><path d="M 119.26925614724726 108.34839909993367 l 17.674984554307947 7.657681439125274 a40.26253264807482,40.26253264807482 0 0,0 -0.28099205289874074,0.6335628995511331 l -17.540551416677935 -7.960792675169095" fill="#ffe015" stroke="none" /><path d="M 119.12269723197855 108.67885076344098 l 18.510461580436555 8.400987144761434 a41.32766029151571,41.32766029151571 0 0,0 -0.29957709157091744,0.6452624036145483 l -18.363109872025806 -8.718369615654813" fill="#ffee16" stroke="none" /><path d="M 118.81262510543309 109.33194174019688 l 19.078908787100694 9.46403089786417 a42.29724492375095,42.29724492375095 0 0,0 -0.32915581094358853,0.6494556420115756 l -18.913174306370838 -9.791040751578441" fill="#fffa17" stroke="none" /><path d="M 118.64920377521936 109.65438752849418 l 16.815551335613584 8.705135675283914 a39.935209368944314,39.935209368944314 0 0,0 -0.32128349792366157,0.6077472992241016 l -16.66321532946503 -8.99329798959415" fill="#ffdc14" stroke="none" /><line stroke="#e1ed5e" stroke-width="0.3" x1="174.80103733775053" x2="179.2010983576182" y1="140.37084112569926" y2="142.7455964860345" /><path d="M 175.68104954172406 140.8457921977663 a86.0,86.0 0 0,1 -30.038265399797805,32.042727171017184" fill="none" id="id29" stroke="none" /><text fill="#e1ed5e" style="font-size:6.75px; font-family:Arial;" text-anchor="middle"><textPath startOffset="22.206326154141568" xlink:href="#id29">May</textPath></text><path d="M 118.12598468904814 110.60418214915192 l 17.127215290898548 10.019875541556901 a40.84286797539809,40.84286797539809 0 0,0 -0.3602323923988645,0.6037702101889941 l -16.952202022801455 -10.313207845632" fill="#ffe815" stroke="none" /><path d="M 117.75023020441432 111.22182372390056 l 6.373871525083315 4.029607609003635 a28.540820625157973,28.540820625157973 0 0,0 -0.26610256541113836,0.4129970908810382 l -6.303564096295126 -4.138726299806126" fill="#ff3e05" stroke="none" /><path d="M 117.14729908036423 112.12312394758627 l 14.772190841412446 10.4439247084059 a39.091246103294296,39.091246103294296 0 0,0 -0.3931838627730585,0.5460979965593317 l -14.590227186263785 -10.696656310416364" fill="#ffd113" stroke="none" /><path d="M 116.71984013943494 112.70617746262583 l 21.693953841713537 16.48623581805019 a48.247451343836886,48.247451343836886 0 0,0 -0.5081908249456982,0.6569051460549088 l -21.406956199549768 -16.85721895821835" fill="#bbff1f" stroke="none" /><path d="M 115.80600337817218 113.82643327865902 l 29.16433347223613 25.511743938211527 a59.74799898896284,59.74799898896284 0 0,0 -0.6838048956293928,0.7682620492055505 l -28.7208697269584 -26.009980157157944" fill="#3cff2e" stroke="none" /><path d="M 115.56566222782051 114.09645910891815 l 16.550565112064614 14.988399524353119 a43.32875558176763,43.32875558176763 0 0,0 -0.5054063960394949,0.5485188239253612 l -16.290112308029396 -15.271069603079814" fill="#f7ff19" stroke="none" /><path d="M 115.32070863581623 114.36230785411682 l 20.736977355664997 19.43975698680485 a49.42404583368439,49.42404583368439 0 0,0 -0.5871893161833353,0.6156656504662774 l -20.399281488102698 -19.793829753853636" fill="#adff20" stroke="none" /><path d="M 113.75828350139079 115.86535959552629 l 25.940084943476542 29.912799480047788 a60.59373156963518,60.59373156963518 0 0,0 -0.7938774979919001,0.6765596265932041 l -25.421341968907598 -30.35488349686394" fill="#34ff2f" stroke="none" /><path d="M 112.92097659922987 116.55440617244103 l 23.159563246441692 29.67212376042721 a58.640407784986095,58.640407784986095 0 0,0 -0.8010594449018567,0.6142182234236606 l -22.645375073046342 -30.06638132567824" fill="#48ff2c" stroke="none" /><path d="M 112.04921762599082 117.19931262002967 l 11.086823295428916 15.825570235347891 a40.32268935883394,40.32268935883394 0 0,0 -0.5718969247151816,0.39335591965367805 l -10.81276948609085 -16.014066944366665" fill="#ffe115" stroke="none" /><path d="M 111.7513745106137 117.40417183066458 l 11.729592537470772 17.371912012628133 a41.96107506950881,41.96107506950881 0 0,0 -0.6020920755483201,0.39903379659603105 l -11.42882576318249 -17.571243830315485" fill="#fff617" stroke="none" /><line stroke="#e1ed5e" stroke-width="0.3" x1="143.8653032363475" x2="146.44561519142675" y1="172.8068346515853" y2="177.08958963109032" /><path d="M 144.38136562736335 173.6633856474863 a86.0,86.0 0 0,1 -40.68145358897372,12.25698825130547" fill="none" id="id30" stroke="none" /><text fill="#e1ed5e" style="font-size:6.75px; font-family:Arial;" text-anchor="middle"><textPath startOffset="21.466115282336833" xlink:href="#id30">June</textPath></text><path d="M 110.8373102113329 117.98757091392108 l 11.921132540160288 19.786479556167627 a44.10017693150223,44.10017693150223 0 0,0 -0.653590093067451,0.3861525474410897 l -11.578774576064456 -19.988750675902466" fill="#edff19" stroke="none" /><path d="M 110.5260780823613 118.17145234162733 l 9.584238422451637 16.545529147861362 a40.12098744628865,40.12098744628865 0 0,0 -0.6005753274323776,0.3410223449693323 l -9.298014328098061 -16.708054658625322" fill="#ffde14" stroke="none" /><path d="M 110.21172684928248 118.3499491758327 l 19.815172387380994 35.606848046895514 a61.74909427921476,61.74909427921476 0 0,0 -0.9332263767616614,0.508869429065971 l -19.199323198750683 -35.94265812772125" fill="#30ff38" stroke="none" /><path d="M 108.59647513512805 119.15986991738527 l 8.031537010147016 17.90073279247496 a40.619934282584886,40.619934282584886 0 0,0 -0.6404009732249801,0.2807329670120408 l -7.722215362264281 -18.036330312781455" fill="#ffe515" stroke="none" /><path d="M 108.2653958097858 119.30500536409082 l 7.6463093766490955 17.859041106893354 a40.42707894515124,40.42707894515124 0 0,0 -0.642075458921772,0.26838759390316225 l -7.337762458229863 -17.98801374381649" fill="#ffe215" stroke="none" /><path d="M 106.57524785965236 119.94407469862006 l 5.044033344185256 15.299587170859862 a37.10961327828798,37.10961327828798 0 0,0 -0.6083832258878269,0.1947850968202304 l -4.779928773206488 -15.3841451143398" fill="#ffb610" stroke="none" /><path d="M 105.53697534728816 120.25689768951611 l 5.853267308317847 21.414044596036625 a43.19959558513776,43.19959558513776 0 0,0 -0.7189843582706613,0.18989030376642463 l -5.4837925072356875 -21.511626249106634" fill="#f9ff18" stroke="none" /><path d="M 105.18746579009965 120.34920634021253 l 4.645511322181248 18.223246624830985 a39.80604937231443,39.80604937231443 0 0,0 -0.6654182323571688,0.16354361196823272 l -4.331139805080868 -18.30051149511325" fill="#ffda14" stroke="none" /><path d="M 104.13013068566511 120.58985236759428 l 4.216776783965773 21.021807312368978 a42.44055944055944,42.44055944055944 0 0,0 -0.7175130027187233,0.1375130746663826 l -3.854296166675345 -21.09127758538383" fill="#fffc17" stroke="none" /><path d="M 103.7750983002368 120.6578951692458 l 1.717862155158734 9.400395299443643 a30.55607043558851,30.55607043558851 0 0,0 -0.5182179006384445,0.09009882458018564 l -1.5557952830482398 -9.428572702544836" fill="#ff5c08" stroke="none" /><path d="M 103.41894727170886 120.7198165907248 l 1.5416804952553556 9.343032976119225 a30.46937399949448,30.46937399949448 0 0,0 -0.5182175071865975,0.08093491694123275 l -1.380627124460241 -9.368186200407564" fill="#ff5a08" stroke="none" /><path d="M 102.70371172650421 120.8252237178851 l 1.6198579566240987 12.476886499105309 a33.5815991237678,33.5815991237678 0 0,0 -0.5738816674096219,0.06948907783240707 l -1.4048488661630965 -12.502921105663066" fill="#ff860c" stroke="none" /><line stroke="#e1ed5e" stroke-width="0.3" x1="102.19456741930631" x2="102.32365962044197" y1="184.97166512339345" y2="189.96999836594603" /><path d="M 102.22038585953345 185.97133177190398 a86.0,86.0 0 0,1 -42.740103519485714,-10.115201625700543" fill="none" id="id31" stroke="none" /><text fill="#e1ed5e" style="font-size:6.75px; font-family:Arial;" text-anchor="middle"><textPath startOffset="22.20632615414155" xlink:href="#id31">July</textPath></text><path d="M 100.54218724476979 120.99299961872073 l 0.27892790602109413 10.79983618433809 a31.80343752632909,31.80343752632909 0 0,0 -0.547383062952169,0.00942369583849567 l -0.0929851531762572 -10.803037357455747" fill="#ff6d0a" stroke="none" /><path d="M 99.81925306533755 120.99922214144158 l -0.08049779228458177 9.352252779481015 a30.352599208020894,30.352599208020894 0 0,0 -0.5224120414433635,-0.008993797057546216 l 0.2414695236206132 -9.34948150514431" fill="#ff5908" stroke="none" /><path d="M 99.45781275523022 120.99299961872073 l -0.4153312351037865 16.081249686865696 a37.086612182997726,37.086612182997726 0 0,0 -0.6380303908120151,-0.02197505671839651 l 0.6920819775904447 -16.071717831721205" fill="#ffb610" stroke="none" /><path d="M 98.01472825383883 120.90594882070398 l -3.538497244084564 37.262224896957854 a58.42985929732918,58.42985929732918 0 0,0 -1.000451085154342,-0.10370084557392852 l 4.1793809258445 -37.19579468292816" fill="#4aff2c" stroke="none" /><path d="M 97.2962882734958 120.8252237178851 l -2.39550362422429 18.45126401695843 a39.606116774791474,39.606116774791474 0 0,0 -0.6753246681508793,-0.09359384543331697 l 2.7127568835620006 -18.40729560603251" fill="#ffd714" stroke="none" /><path d="M 96.58105272829116 120.7198165907248 l -2.2413706901311428 13.58335941464569 a34.76704018872694,34.76704018872694 0 0,0 -0.5896341486708416,-0.10251545471920369 l 2.474853810274034 -13.54276538140548" fill="#ff970d" stroke="none" /><path d="M 95.86986931433489 120.58985236759428 l -2.8561894572364266 14.238900348236061 a35.522537703260596,35.522537703260596 0 0,0 -0.59848462624334,-0.12541827238632006 l 3.1008655449091536 -14.187626095123202" fill="#ffa10e" stroke="none" /><path d="M 95.16358092515715 120.4354850818985 l -2.1115783676666657 8.922123489291266 a30.16859044569888,30.16859044569888 0 0,0 -0.5043135514233311,-0.12394800105210846 l 2.264845203833207 -8.884454229925128" fill="#ff5608" stroke="none" /><path d="M 94.46302465271185 120.25689768951611 l -3.0616875224746933 11.201113786864457 a32.61201449153256,32.61201449153256 0 0,0 -0.5402239708059445,-0.15267269030115208 l 3.2540426613852516 -11.146752303224783" fill="#ff790b" stroke="none" /><path d="M 93.76903079525671 120.05430185196036 l -1.1995757547256234 3.8608206025553486 a25.042884826017357,25.042884826017357 0 0,0 -0.41055860490208357,-0.13144790027622488 l 1.2658557047186474 -3.839599855619417" fill="#ff0b01" stroke="none" /><path d="M 91.7346041902142 119.30500536409082 l -8.83852082043991 20.6436201938698 a43.456146263375174,43.456146263375174 0 0,0 -0.6851157898501278,-0.30033462857317034 l 9.192557284947782 -20.488421012002178" fill="#f5ff19" stroke="none" /><path d="M 90.42595943632237 118.69057910512821 l -19.727250486586918 38.51182092804917 a64.27036818603084,64.27036818603084 0 0,0 -0.9803039822836841,-0.5128487115033418 l 20.387245371397096 -38.16654279760111" fill="#34ff58" stroke="none" /><line stroke="#e1ed5e" stroke-width="0.3" x1="58.666819895761336" x2="56.23545636021788" y1="174.27360380694188" y2="178.64263932499728" /><path d="M 58.180547188652646 175.14741091055294 a86.0,86.0 0 0,1 -31.652253787137756,-30.449443065178592" fill="none" id="id32" stroke="none" /><text fill="#e1ed5e" style="font-size:6.75px; font-family:Arial;" text-anchor="middle"><textPath startOffset="22.20632615414155" xlink:href="#id32">August</textPath></text><path d="M 89.7882731507175 118.34994917583269 l -4.679550285049077 8.40891175055641 a30.623304406436937,30.623304406436937 0 0,0 -0.4584035000528895,-0.26029347092648836 l 4.823602552023173 -8.327115113835289" fill="#ff5d08" stroke="none" /><path d="M 89.1626897886671 117.98757091392108 l -7.830547845007246 12.997001277090503 a36.17364563147696,36.17364563147696 0 0,0 -0.530582631846318,-0.3259271881113665 l 8.053109676785873 -12.860285622150759" fill="#ffaa0f" stroke="none" /><path d="M 88.54995079064634 117.60387380957326 l -6.854208411193686 10.538000119388158 a33.57098323363384,33.57098323363384 0 0,0 -0.4817041255462099,-0.31924722788889753 l 7.034587235479858 -10.418454870407942" fill="#ff860c" stroke="none" /><path d="M 87.95078237400918 117.19931262002967 l -5.298244737555488 7.562828592462287 a30.23405510152498,30.23405510152498 0 0,0 -0.42366934212808327,-0.3022768264896774 l 5.427641407532458 -7.470507504128391" fill="#ff5708" stroke="none" /><path d="M 87.36589467227662 116.77436683061367 l -13.454805909716352 17.864015227816726 a43.36414188221417,43.36414188221417 0 0,0 -0.5923774533114107,-0.45420977092872755 l 13.76031209152125 -17.629766115060633" fill="#f6ff19" stroke="none" /><path d="M 86.51685102203217 116.09983520530335 l -12.928782417916581 15.437882253901536 a41.136574269104386,41.136574269104386 0 0,0 -0.5389567503229787,-0.4593106350422426 l 13.192604644816617 -15.213047228636341" fill="#ffeb16" stroke="none" /><path d="M 85.70375840098266 115.38237550388516 l -7.665454674879629 8.247825234368957 a32.259920802089475,32.259920802089475 0 0,0 -0.4035011990523409,-0.3815355689789741 l 7.806291708322787 -8.114655028644052" fill="#ff740a" stroke="none" /><path d="M 85.18274418774928 114.88116024355367 l -6.039757656050973 6.065806155389048 a29.559946078018367,29.559946078018367 0 0,0 -0.357477401398366,-0.3621227202851997 l 6.143275682504873 -5.960942941123183" fill="#ff4d07" stroke="none" /><path d="M 84.67929136418377 114.36230785411682 l -16.39079604495699 15.365454977805662 a43.46676215350914,43.46676215350914 0 0,0 -0.507016167728446,-0.5502659131599442 l 16.652858620681165 -15.081037809844375" fill="#f5ff19" stroke="none" /><path d="M 84.19399662182784 113.82643327865904 l -6.872928084484504 6.012151162790403 a30.131434830230013,30.131434830230013 0 0,0 -0.33812849119636346,-0.3933198248613311 l 6.975399085251646 -5.892954238767541" fill="#ff5607" stroke="none" /><path d="M 83.95833913139862 113.55231037782056 l -8.314794646864586 7.024501933132709 a31.88482601735614,31.88482601735614 0 0,0 -0.35058732714791313,-0.4223050202673276 l 8.434477973906034 -6.880335655751621" fill="#ff6f0a" stroke="none" /><path d="M 83.50135304334701 112.99209946851258 l -14.335710343243935 11.288863578967922 a39.246945825259075,39.246945825259075 0 0,0 -0.4133884219790046,-0.5343602607279323 l 14.52790558244101 -11.040425324126737" fill="#ffd313" stroke="none" /><path d="M 83.28015986056508 112.70617746262583 l -15.087158808100765 11.46542763709855 a39.94936388912292,39.94936388912292 0 0,0 -0.41136189732005,-0.5510864852607072 l 15.2822819721159 -11.204028272328534" fill="#ffdc14" stroke="none" /><path d="M 83.06392112726016 112.41649034213515 l -15.531992461856362 11.387100629719528 a40.258994018030165,40.258994018030165 0 0,0 -0.40492919405892897,-0.5624112344397002 l 15.725701448290899 -11.11805578982869" fill="#ffe015" stroke="none" /><path d="M 82.6465618267979 111.8261652097733 l -19.22782588388076 13.103538518302184 a44.268261858623305,44.268261858623305 0 0,0 -0.42370396011656636,-0.6333799314660343 l 19.45053294940806 -12.770621672630329" fill="#ebff1a" stroke="none" /><path d="M 82.24976979558568 111.22182372390057 l -15.994499286899586 10.111837958304537 a39.92282416378802,39.92282416378802 0 0,0 -0.36222427083429465,-0.5840208593035789 l 16.166188197401837 -9.835020767635696" fill="#ffdc14" stroke="none" /><path d="M 82.05923443525364 110.91462005526583 l -15.968173176003084 9.714554407602007 a39.691043895863174,39.691043895863174 0 0,0 -0.35007335204832457,-0.5867430742145816 l 16.13302740374964 -9.438249239501316" fill="#ffd914" stroke="none" /><line stroke="#e1ed5e" stroke-width="0.3" x1="26.63291911575756" x2="22.317208475507996" y1="142.92168965132927" y2="145.44649492493687" /><path d="M 25.769776987707644 143.4266507060508 a86.0,86.0 0 0,1 -11.730757126820373,-40.83630448921669" fill="none" id="id33" stroke="none" /><text fill="#e1ed5e" style="font-size:6.75px; font-family:Arial;" text-anchor="middle"><textPath startOffset="21.46611528233685" xlink:href="#id33">September</textPath></text><path d="M 81.51974371655577 109.97397251340807 l -18.628173070614785 10.053804629742535 a42.16808492712107,42.16808492712107 0 0,0 -0.3392472467331949,-0.6417279421562352 l 18.798472825572865 -9.731661672500174" fill="#fff817" stroke="none" /><path d="M 81.35079622478065 109.6543875284942 l -8.843012793574395 4.577882973322549 a30.95770494565675,30.95770494565675 0 0,0 -0.240911872503976,-0.47534197976561804 l 8.920503335864638 -4.424986781854245" fill="#ff6109" stroke="none" /><path d="M 81.18737489456691 109.33194174019688 l -17.14835209501058 8.506384504776314 a40.14221922655658,40.14221922655658 0 0,0 -0.3017294560557129,-0.6216520487875659 l 17.292234807681012 -8.209943500023462" fill="#ffde14" stroke="none" /><path d="M 81.02952815118164 109.00673069616217 l -18.67158582339676 8.864826690754606 a41.66913809082484,41.66913809082484 0 0,0 -0.3020524053252373,-0.650594009227091 l 18.821412845561827 -8.542112614248689" fill="#fff216" stroke="none" /><path d="M 80.87730276802145 108.67885076344099 l -17.535717977323653 7.958599015021633 a40.257224703007836,40.257224703007836 0 0,0 -0.2809550087715215,-0.6334793748236323 l 17.670114070826454 -7.6555713037053055" fill="#ffe015" stroke="none" /><path d="M 80.58989483394504 108.01547362559985 l -18.572800098650777 7.669705448305455 a41.094110708568536,41.094110708568536 0 0,0 -0.26436699648309975,-0.6561372046914653 l 18.702069709391264 -7.348868875771185" fill="#ffeb16" stroke="none" /><path d="M 80.32549172779594 107.34259656027581 l -18.905364128779784 7.055549226551993 a41.17903782964024,41.17903782964024 0 0,0 -0.24212438700517375,-0.6662223247518434 l 19.02401277679018 -6.7290791047940335" fill="#ffec16" stroke="none" /><path d="M 79.97269907076064 106.31721596034903 l -20.26521898729165 6.392262506006556 a42.24947341814811,42.24947341814811 0 0,0 -0.21280300777876088,-0.6954525421206209 l 20.372248767576544 -6.0424829913338876" fill="#fff917" stroke="none" /><path d="M 79.76711848015287 105.62410040840567 l -10.58949026887609 2.9435429890484484 a31.990984918695762,31.990984918695762 0 0,0 -0.14291123023543417,-0.5318258519886326 l 10.638589575453299 -2.760826203884277" fill="#ff700a" stroke="none" /><path d="M 79.58551787078972 104.9243191809786 l -19.81076798081086 4.778693093479783 a41.378970427163196,41.378970427163196 0 0,0 -0.16106160119488638,-0.6938491625738389 l 19.8900901479363 -4.43697527355737" fill="#ffee16" stroke="none" /><path d="M 79.50377843672027 104.57218783832718 l -21.603145316086398 4.819114487949531 a43.13413092931165,43.13413092931165 0 0,0 -0.15541835621677133,-0.7260628188097854 l 21.68289771102761 -4.446537849723582" fill="#f9ff18" stroke="none" /><path d="M 79.4281124754447 104.21870165774334 l -22.383128780192692 4.590135075246231 a43.84893419833179,43.84893419833179 0 0,0 -0.14526539481540637,-0.740705118550415 l 22.458824107983762 -4.204166229627861" fill="#f0ff19" stroke="none" /><path d="M 79.35854240842038 103.8639653848113 l -20.29363624872716 3.798855175277026 a41.64613699553459,41.64613699553459 0 0,0 -0.12583788358077144,-0.7057656791003132 l 20.356020574647122 -3.448970745443499" fill="#fff216" stroke="none" /><path d="M 79.29508885075956 103.50808413554451 l -29.842355297839422 5.056263822289992 a51.26767208694919,51.26767208694919 0 0,0 -0.13993204866688339,-0.8713570006242682 l 29.924969100867596 -4.54182759197251" fill="#98ff23" stroke="none" /><path d="M 79.1416061653843 102.43462659150553 l -12.106620197714005 1.413104944719994 a33.18881118881119,33.18881118881119 0 0,0 -0.06134825077456135,-0.5680086101681066 l 12.129150749989618 -1.2045000126671053" fill="#ff810b" stroke="none" /><path d="M 79.07016306316243 101.71520430193888 l -19.03946831300323 1.560288217038849 a40.103294296065386,40.103294296065386 0 0,0 -0.0504603354380466,-0.688491186128943 l 19.06350520710561 -1.2323238944131454" fill="#ffde14" stroke="none" /><path d="M 79.04373962182676 101.35467743843564 l -18.902832893143707 1.2219375394634742 a39.94228662903362,39.94228662903362 0 0,0 -0.03844663650804393,-0.6864905218407192 l 18.921065880539285 -0.8963753012873173" fill="#ffdc14" stroke="none" /><path d="M 79.0235259727143 100.99374915477108 l -19.02357118794366 0.9012314349950198 a40.044906900328584,40.044906900328584 0 0,0 -0.026692537465563302,-0.6888157863621376 l 19.03626585826042 -0.5736384016188856" fill="#ffdd14" stroke="none" /><line stroke="#e1ed5e" stroke-width="0.3" x1="15.007084014347285" x2="10.007500721073583" y1="101.09737516637583" y2="101.16192664675087" /><path d="M 14.007167355692545 101.11028546245083 a86.0,86.0 0 0,1 10.666146001902534,-42.60595125391555" fill="none" id="id34" stroke="none" /><text fill="#e1ed5e" style="font-size:6.75px; font-family:Arial;" text-anchor="middle"><textPath startOffset="22.20632615414155" xlink:href="#id34">October</textPath></text><path d="M 79.00175016825051 100.2711162175752 l -20.17735608148142 0.26051735288947725 a41.17903782964024,41.17903782964024 0 0,0 -0.0030505876555823462,-0.7088491367670114 l 20.178850966426506 0.08684126208120956" fill="#ffec16" stroke="none" /><path d="M 79.00486145842228 99.54816195383935 l -20.482155967051 -0.4407981073800781 a41.48689864352515,41.48689864352515 0 0,0 0.02151057278658982,-0.7138311890790068 l 20.471533699808763 0.7932994438840792" fill="#fff016" stroke="none" /><path d="M 79.08570108090925 98.10471618934814 l -8.97434698752458 -0.8132682153214167 a30.01112140871177,30.01112140871177 0 0,0 0.051051596105656516,-0.5140826057958929 l 8.959018265736695 0.96762635182174" fill="#ff5407" stroke="none" /><path d="M 79.16333360222342 97.38593545837743 l -11.065254722822967 -1.3881918279422878 a32.15199258572753,32.15199258572753 0 0,0 0.073618878180221,-0.5485461528352018 l 11.039719845584912 1.5784563228421489" fill="#ff720a" stroke="none" /><path d="M 79.26566170972629 96.67025291283419 l -18.922769598133367 -3.0388255495981187 a40.16522032184683,40.16522032184683 0 0,0 0.11550013746983041,-0.6816883494348631 l 18.867657599143314 3.36409968734881" fill="#ffdf14" stroke="none" /><path d="M 79.32604984820605 96.31383870115002 l -18.526256113782154 -3.3032278687815677 a39.818434577470725,39.818434577470725 0 0,0 0.12611877861728574,-0.6737315584046509 l 18.466651611255006 3.6216375046487914" fill="#ffda14" stroke="none" /><path d="M 79.62865764111835 94.90015583598534 l -18.96393644985115 -4.747508481607371 a40.5491616816918,40.5491616816918 0 0,0 0.17533393429912345,-0.6756331720676669 l 18.87940618368172 5.073238079223901" fill="#ffe415" stroke="none" /><path d="M 79.71946130924805 94.55025226153421 l -19.44327658286852 -5.22476025916271 a41.133035639059734,41.133035639059734 0 0,0 0.18962961983934998,-0.6821986366262046 l 19.350460192462812 5.558670199207857" fill="#ffeb16" stroke="none" /><path d="M 79.91906864156998 93.8553929516997 l -19.465086804173676 -5.9561634586481595 a41.35596933187294,41.35596933187294 0 0,0 0.21415404182340575,-0.6789268354494049 l 19.359677278582065 6.290340460523979" fill="#ffee16" stroke="none" /><path d="M 80.2630227832202 92.82701384747504 l -18.055783858774547 -6.561992050224617 a40.21122251242733,40.21122251242733 0 0,0 0.2420244769671842,-0.648505271272572 l 17.940154793305737 6.87182045852653" fill="#ffdf14" stroke="none" /><path d="M 80.38941819471856 92.48833698450439 l -17.241252096900485 -6.604111851604751 a39.462802257982986,39.462802257982986 0 0,0 0.24843985705946262,-0.6322523375857186 l 17.12501868995933 6.899913194086233" fill="#ffd614" stroke="none" /><path d="M 80.95270993114464 91.15688171328213 l -10.925431863574632 -5.07236913775173 a33.0454966720027,33.0454966720027 0 0,0 0.24397302330588988,-0.5138694079603826 l 10.836500646426991 5.259680961352645" fill="#ff7f0b" stroke="none" /><path d="M 81.26839172434947 90.50648371742162 l -19.279242286236986 -9.771067057711473 a42.61395231274749,42.61395231274749 0 0,0 0.33723985191158934,-0.651440052604248 l 19.108193001165283 10.101479832576056" fill="#fffe18" stroke="none" /><path d="M 81.6062741919709 89.86733742301443 l -16.284545521170262 -8.970765722383044 a39.59196225461285,39.59196225461285 0 0,0 0.3339720752211036,-0.5940990562127664 l 16.127715804656727 9.249748288530595" fill="#ffd714" stroke="none" /><line stroke="#e1ed5e" stroke-width="0.3" x1="26.266209847984243" x2="21.928928074336255" y1="57.711370442889674" y2="55.22380399835377" /><path d="M 25.398753493254645 57.213857153982495 a86.0,86.0 0 0,1 29.58750427330803,-30.492523968695096" fill="none" id="id35" stroke="none" /><text fill="#e1ed5e" style="font-size:6.75px; font-family:Arial;" text-anchor="middle"><textPath startOffset="21.46611528233685" xlink:href="#id35">November</textPath></text><path d="M 81.78341655067845 89.55222093294921 l -24.079533047131655 -13.810363618077323 a48.758783385289405,48.758783385289405 0 0,0 0.4238306757896018,-0.724464011656538 l 23.838242696871728 14.222807042087753" fill="#b5ff20" stroke="none" /><path d="M 81.96595687620814 89.24020034530311 l -19.064212576814942 -11.374438138636949 a43.19959558513776,43.19959558513776 0 0,0 0.38650102527961305,-0.6353060619577109 l 18.865595753249114 11.700911973801734" fill="#f9ff18" stroke="none" /><path d="M 82.15384107792192 88.93136811851018 l -16.811686149444355 -10.42702612409956 a40.782711264638976,40.782711264638976 0 0,0 0.3751473507903413,-0.5933930171191619 l 16.62971120240805 10.714866788932937" fill="#ffe715" stroke="none" /><path d="M 82.7489923806493 88.02491185347247 l -12.895015553027168 -8.951300196814573 a36.69736287808577,36.69736287808577 0 0,0 0.3646798342444824,-0.5158137633009034 l 12.739023098978807 9.171940460447262" fill="#ffb110" stroke="none" /><path d="M 82.95767976084542 87.72973835380427 l -16.027161387601605 -11.539359718159641 a40.74909427921476,40.74909427921476 0 0,0 0.41474309303214335,-0.5657091127981858 l 15.826155682055827 11.813531274629328" fill="#ffe615" stroke="none" /><path d="M 83.17141714833178 87.43820079747576 l -14.605378039854601 -10.902274293133551 a39.22571404499115,39.22571404499115 0 0,0 0.4085527344537456,-0.5376075085278996 l 14.415549365176748 11.152066577542477" fill="#ffd313" stroke="none" /><path d="M 83.39014120810768 87.1503855733568 l -16.04028995472827 -12.408988167342189 a41.27988878591288,41.27988878591288 0 0,0 0.43962279430971957,-0.5582763043795976 l 15.824313079824579 12.683256865674833" fill="#ffed16" stroke="none" /><path d="M 83.84228863543731 86.58626213691792 l -16.315626481109096 -13.544835141042945 a42.20524054258994,42.20524054258994 0 0,0 0.4688587939909124,-0.5549809264088861 l 16.080057073631057 13.823675017080946" fill="#fff917" stroke="none" /><path d="M 84.07557802195018 86.31012108654704 l -14.597498620033871 -12.549151788555756 a40.25014744291853,40.25014744291853 0 0,0 0.4561839325526698,-0.5214970942740962 l 14.379322823903358 12.798564439032795" fill="#ffe015" stroke="none" /><path d="M 84.31358615837235 86.03803664274999 l -15.615045879082547 -13.898441070512172 a41.90445698879434,41.90445698879434 0 0,0 0.484208713088684,-0.5346753548157246 l 15.37349352537782 14.165169212597451" fill="#fff517" stroke="none" /><path d="M 84.5562425177563 85.77008943001954 l -13.243454684832455 -12.202546952671764 a39.008088297244925,39.008088297244925 0 0,0 0.4592416254543229,-0.48988694633832913 l 13.031445737407676 12.428703315888143" fill="#ffd013" stroke="none" /><path d="M 85.05521093208273 85.24692304244772 l -14.786136829097021 -14.59645991343302 a41.777066307186786,41.777066307186786 0 0,0 0.5096089886636953,-0.5074205657131702 l 14.532692040266014 14.848816329796298" fill="#fff316" stroke="none" /><path d="M 85.31137513191541 84.99185889309783 l -13.662685866008417 -13.95988523213414 a40.53323784649086,40.53323784649086 0 0,0 0.502837507126371,-0.483729283457929 l 13.420365115269618 14.192997602354382" fill="#ffe415" stroke="none" /><path d="M 85.57189188830299 84.74124197986013 l -16.726831882799807 -17.689823098586615 a45.345774707220485,45.345774707220485 0 0,0 0.5717716021755525,-0.5313993903018669 l 16.4198523968294 17.975127074963126" fill="#deff1b" stroke="none" /><path d="M 85.83668400450813 84.49514656593479 l -13.454493878942696 -14.728892279811722 a40.94902687673772,40.94902687673772 0 0,0 0.5245161094514145,-0.4709157419364573 l 13.19896678189531 14.958307030517458" fill="#ffe915" stroke="none" /><path d="M 86.10567301691215 84.25364557470407 l -10.348458213033664 -11.727843383572004 a36.640744797371305,36.640744797371305 0 0,0 0.4765149822077654,-0.4132290969139637 l 10.145049432179125 11.90423747390565" fill="#ffb010" stroke="none" /><path d="M 86.65592168130627 83.78471172551755 l -13.44301495126977 -16.33551284000224 a42.15569972196478,42.15569972196478 0 0,0 0.5642773296657015,-0.4562730243984106 l 13.159834223039567 16.564491961664785" fill="#fff817" stroke="none" /><path d="M 87.22198572758235 83.33499621200491 l -10.99841552001169 -14.344062574619416 a39.07532226809335,39.07532226809335 0 0,0 0.5372928380020185,-0.40467782633441796 l 10.749876528251281 14.531256990459688" fill="#ffd113" stroke="none" /><path d="M 87.51073957382395 83.11751280151077 l -14.707422106046222 -19.880910234500302 a45.72971606706547,45.72971606706547 0 0,0 0.6368509355059532,-0.46269928864507565 l 14.363025854186485 20.131128757962045" fill="#d9ff1c" stroke="none" /><path d="M 87.80319425747018 82.90503203632743 l -11.607980256771162 -16.269673781923103 a40.98618249220659,40.98618249220659 0 0,0 0.5778443972992257,-0.4048169279107987 l 11.326204719888276 16.467075552597844" fill="#ffe915" stroke="none" /><path d="M 88.39885842347998 82.49532879139004 l -10.537695453404867 -15.900064057631134 a40.07498525570814,40.07498525570814 0 0,0 0.5782877130327656,-0.3761344146757546 l 10.262440714587814 16.079097396466423" fill="#ffde14" stroke="none" /><path d="M 88.70189139769569 82.29822771554957 l -10.829773491314869 -16.967989154957664 a41.12949700901508,41.12949700901508 0 0,0 0.60006143600597,-0.3757584161771981 l 10.536092902936657 17.151891912457792" fill="#ffeb16" stroke="none" /><path d="M 89.00827224532344 82.1063720568725 l -10.324945044813285 -16.808160581171826 a40.726093183924505,40.726093183924505 0 0,0 0.6004925402141841,-0.36179003652215874 l 10.034090438381453 16.983397227152604" fill="#ffe615" stroke="none" /><line stroke="#e1ed5e" stroke-width="0.3" x1="56.762969772571076" x2="54.21961505331055" y1="26.818313649435495" y2="22.513508569990535" /><path d="M 56.25429882871897 25.957352633546506 a86.0,86.0 0 0,1 42.265352541879196,-11.944610805530505" fill="none" id="id36" stroke="none" /><text fill="#e1ed5e" style="font-size:6.75px; font-family:Arial;" text-anchor="middle"><textPath startOffset="22.20632615414155" xlink:href="#id36">December</textPath></text><path d="M 89.3179101791058 81.91981866633112 l -5.559294702473965 -9.409493647154152 a31.929058892914313,31.929058892914313 0 0,0 0.4755959024290869,-0.27549584427830554 l 5.396502067579558 9.503793648822505" fill="#ff6f0a" stroke="none" /><path d="M 89.63071344664047 81.73862282372117 l -11.109263443636339 -19.56455237792245 a43.498609823911025,43.498609823911025 0 0,0 0.6542934762965505,-0.3641136111705166 l 10.770845878267743 19.75288138665315" fill="#f5ff19" stroke="none" /><path d="M 90.26544431104013 81.39251694778311 l -9.772283346023835 -18.679599003046953 a42.08138849102704,42.08138849102704 0 0,0 0.6447259721281358,-0.33025368421664636 l 9.449296886306936 18.845045212576103" fill="#fff717" stroke="none" /><path d="M 90.91171255644093 81.06846463323043 l -8.311085341005148 -17.31256928729605 a40.20414525233802,40.20414525233802 0 0,0 0.6264605867924001,-0.2941316454184099 l 8.011846542913139 17.453065915354465" fill="#ffdf14" stroke="none" /><path d="M 91.23893434514133 80.91482961587045 l -8.342536357840823 -18.173443060193126 a40.99679838234055,40.99679838234055 0 0,0 0.6438798662908729,-0.28889012735710745 l 8.028474373083176 18.31435351806676" fill="#ffe915" stroke="none" /><path d="M 91.90106846888425 80.62456947434976 l -12.124173514606518 -29.005194167979898 a52.43718931670739,52.43718931670739 0 0,0 0.8357891951309434,-0.3409393981108206 l 11.623100449887195 29.209594452274295" fill="#8bff24" stroke="none" /><path d="M 92.57280143429618 80.3572730644239 l -1.3835652564471426 -3.659117807275995 a24.911955514365154,24.911955514365154 0 0,0 0.4024083623828648,-0.14821039592947857 l 1.3203745682917083 3.682391471011796" fill="#ff0901" stroke="none" /><path d="M 92.91201910852362 80.23233633223022 l -1.5753722800332546 -4.393554364780242 a25.667453028898812,25.667453028898812 0 0,0 0.41717922041064287,-0.14554563847255475 l 1.4995110555593265 4.420020856425007" fill="#ff1402" stroke="none" /><path d="M 93.59665428221793 80.00007090966166 l -1.020737222853121 -3.1881258605543983 a24.34754402224282,24.34754402224282 0 0,0 0.40024420643084185,-0.12435782322702589 l 0.9657076437115505 3.2052238186639497" fill="#ff0000" stroke="none" /><path d="M 93.94186890950719 79.89281104454417 l -5.781485454714971 -19.188990588798383 a41.04103125789872,41.04103125789872 0 0,0 0.6781733010099855,-0.19797738330119316 l 5.450321935981565 19.285666301018274" fill="#ffea16" stroke="none" /><path d="M 94.63758080256005 79.69619591428918 l -6.6378517860635045 -25.132992638576404 a46.994776308029316,46.994776308029316 0 0,0 0.7838977342352119,-0.199832986667691 l 6.204245163143293 25.24352862141296" fill="#caff1d" stroke="none" /><path d="M 94.98787191387505 79.60689891045804 l -1.23772410653233 -5.035991178148746 a26.185862330440642,26.185862330440642 0 0,0 0.4386460049670988,-0.10381333729169344 l 1.1508544146026969 5.0565504275813105" fill="#ff1c02" stroke="none" /><path d="M 95.692805502759 79.44645832069477 l -3.78571513987852 -18.065089459812288 a39.457494312916,39.457494312916 0 0,0 0.6659553039408029,-0.13358436898829937 l 3.4741934264705807 18.127577784877797" fill="#ffd614" stroke="none" /><path d="M 96.40284397218896 79.31037775812273 l -6.783347056573137 -39.015513102847514 a60.60080882972449,60.60080882972449 0 0,0 1.029263742567784,-0.1698373365957398 l 6.110754107866468 39.12649670238288" fill="#34ff2f" stroke="none" /><path d="M 97.47563105711357 79.15227682838746 l -2.429085659845469 -20.060817789450404 a41.20734686999747,41.20734686999747 0 0,0 0.7049071931298904,-0.0792045364958936 l 2.083411763205861 20.099658279416897" fill="#ffec16" stroke="none" /><path d="M 97.83486435360386 79.11191278185805 l -0.5149699157280575 -4.968158245582163 a25.99477630802932,25.99477630802932 0 0,0 0.44546984857951366,-0.042302729798885115 l 0.4293749400583075 4.976286519896229" fill="#ff1902" stroke="none" /></svg>