<?xml version="1.0" encoding="utf-8" ?>
<svg baseProfile="full" height="200mm" version="1.1" viewBox="0,0,200,200" width="200mm" xmlns="http://www.w3.org/2000/svg" xmlns:ev="http://www.w3.org/2001/xml-events" xmlns:xlink="http://www.w3.org/1999/xlink"><defs /><rect fill="#1a1a1a" height="200" width="200" x="0" y="0" /><text alignment-baseline="middle" fill="#e1ed5e" style="dominant-baseline: central; font-size:9.0px; font-family:Arial;" text-anchor="middle" x="100.0" y="100.0">2023</text><line stroke="#e1ed5e" stroke-width="0.3" x1="100.0" x2="100.0" y1="15.0" y2="10.0" /><path d="M 100.0 14.0 a86.0,86.0 0 0,1 42.46469731375804,11.215312516191453" fill="none" id="id97" stroke="none" /><text fill="#e1ed5e" style="font-size:6.75px; font-family:Arial;" text-anchor="middle"><textPath startOffset="22.20632615414155" xlink:href="#id97">January</textPath></text><path d="M 100.0 79.0 l 0.0 -33.04162576319885 a54.04162576319885,54.04162576319885 0 0,0 0.9302377515022733,0.008006850013719488 l -0.5687572722297448 33.03673028979369" fill="#acff21" stroke="none" /><path d="M 101.08401301168833 79.027996857942 l 1.705948119699241 -33.00435413667056 a54.048413743565185,54.048413743565185 0 0,0 0.9287008989855725,0.05602177439895495 l -2.2738110675244254 32.970099092891296" fill="#abff21" stroke="none" /><path d="M 102.52436894288641 79.15227682838746 l 6.5044583168741585 -53.71764169164368 a75.11000838022268,75.11000838022268 0 0,0 1.2821824640934325,0.16646408272244326 l -7.428155509475437 53.5977192857571" fill="#40ffc5" stroke="none" /><path d="M 103.59715602781102 79.31037775812273 l 5.6616987924379725 -32.56417246213154 a54.05268765712918,54.05268765712918 0 0,0 0.9153047356369594,0.16726608995701983 l -6.221398649177833 32.461890890823774" fill="#abff21" stroke="none" /><path d="M 104.66035177308747 79.52364482259891 l 8.439348620286491 -37.08026952231798 a59.02852867233329,59.02852867233329 0 0,0 0.988801818113351,0.23401744344198522 l -9.076374125362367 36.92950616673512" fill="#6bff28" stroke="none" /><path d="M 106.40334571778207 80.00007090966166 l 16.21457763075152 -50.64390041353902 a74.17628396983119,74.17628396983119 0 0,0 1.212666308050831,0.39979701575402427 l -17.08392676104477 50.35728967352576" fill="#3effb9" stroke="none" /><path d="M 107.08798089147638 80.2323363322302 l 12.956757790989004 -36.13509039577523 a59.38778881838861,59.38778881838861 0 0,0 0.9593041714515796,0.35331982224655056 l -13.57684428821316 35.90670730572236" fill="#67ff28" stroke="none" /><path d="M 107.76421540070413 80.48803036053334 l 14.329360064318802 -36.01059786448199 a59.756853824973064,59.756853824973064 0 0,0 0.9524563275174929,0.3885308507485339 l -14.947100261424684 35.758606127549875" fill="#62ff29" stroke="none" /><path d="M 108.76106565485865 80.91482961587045 l 26.283196964575957 -57.255511152388685 a84.0,84.0 0 0,0 1.308887154801608,0.6145400694399883 l -27.264862330677165 56.79460610030869" fill="#4dd2ff" stroke="none" /><path d="M 110.05341064243156 81.56283822128135 l 14.304656550631814 -26.233611298027885 a50.880186759248176,50.880186759248176 0 0,0 0.7653250162267855,0.4259025429303923 l -14.754105655930633 25.983493357537313" fill="#d7ff1c" stroke="none" /><line stroke="#e1ed5e" stroke-width="0.3" x1="143.23703022742887" x2="145.7803849466894" y1="26.81831364943548" y2="22.513508569990506" /><path d="M 143.74570117128098 25.957352633546492 a86.0,86.0 0 0,1 28.547481713284135,27.462654790039103" fill="none" id="id98" stroke="none" /><text fill="#e1ed5e" style="font-size:6.75px; font-family:Arial;" text-anchor="middle"><textPath startOffset="19.985693538727396" xlink:href="#id98">February</textPath></text><path d="M 110.99172775467656 82.1063720568725 l 18.681989477543222 -30.412740963890265 a56.692457799592965,56.692457799592965 0 0,0 0.827118251178047,0.5179413730077189 l -19.202726881093533 30.086655249559602" fill="#89ff24" stroke="none" /><path d="M 111.60114157652 82.49532879139004 l 19.93026957227581 -30.072283288719493 a57.077110020351974,57.077110020351974 0 0,0 0.8142873437589896,0.5498104494064483 l -20.444961610441343 29.724760927014376" fill="#84ff25" stroke="none" /><path d="M 112.77801427241765 83.33499621200491 l 21.50830607807879 -28.05099404515875 a56.34777924099126,56.34777924099126 0 0,0 0.7646325082259893,0.5968078010702595 l -21.987971141464207 27.676607854865264" fill="#8dff24" stroke="none" /><path d="M 113.89432698308785 84.25364557470407 l 36.43447503166063 -41.29096413568236 a76.06736501855622,76.06736501855622 0 0,0 0.9743469234531796,0.8747782882042379 l -37.1398329427098 40.65768683870882" fill="#41ffd1" stroke="none" /><path d="M 114.68862486808459 84.99185889309783 l 24.862339602228417 -25.403160905056442 a56.54513348497546,56.54513348497546 0 0,0 0.6897542320766988,0.6867922082009883 l -25.29592963447244 24.971432846205335" fill="#8bff24" stroke="none" /><path d="M 115.19652480421416 85.50635884689758 l 27.780913811242794 -26.495965417946188 a59.390302885190955,59.390302885190955 0 0,0 0.6992011252995763,0.7458590100809692 l -28.232882258512834 26.013836990987162" fill="#67ff28" stroke="none" /><path d="M 115.68641384162765 86.03803664274999 l 32.96794798938229 -29.343691071694835 a65.13544834191309,65.13544834191309 0 0,0 0.7382269845180987,0.8439210587419548 l -33.468166837478236 28.771854456749935" fill="#31ff40" stroke="none" /><path d="M 116.38621287248628 86.86637796730983 l 25.786363099037196 -20.667883981240962 a54.046905303483776,54.046905303483776 0 0,0 0.5755890394118376,0.7309396280709172 l -26.138306219043 20.220951959217007" fill="#abff21" stroke="none" /><path d="M 117.2510076193507 88.02491185347247 l 27.141888223995068 -18.841015615861863 a54.040368729797684,54.040368729797684 0 0,0 0.5238712828393922,0.7687164652457752 l -27.462183972503194 18.37102112734568" fill="#acff21" stroke="none" /><path d="M 117.65298651832404 88.62581576622439 l 27.77518743154861 -17.89612758419961 a54.04137435651862,54.04137435651862 0 0,0 0.4971096279343272,0.7863080502567352 l -28.079124655728894 17.41537188622867" fill="#acff21" stroke="none" /><line stroke="#e1ed5e" stroke-width="0.3" x1="172.23445277983987" x2="176.4835382374775" y1="55.19839476539836" y2="52.563006222186495" /><path d="M 173.08426987136738 54.67131705675599 a86.0,86.0 0 0,1 12.851231095245387,41.99856678651699" fill="none" id="id99" stroke="none" /><text fill="#e1ed5e" style="font-size:6.75px; font-family:Arial;" text-anchor="middle"><textPath startOffset="22.20632615414155" xlink:href="#id99">March</textPath></text><path d="M 117.84615892207809 88.93136811851018 l 36.651177669874905 -22.731972488995748 a64.12831318089309,64.12831318089309 0 0,0 0.5737474728211011,0.9430899885775658 l -37.03704094098223 22.097714727211102" fill="#30ff31" stroke="none" /><path d="M 119.04729006885535 91.15688171328212 l 37.082129905390374 -17.216184553885572 a61.88375433975817,61.88375433975817 0 0,0 0.4402518817128234,0.9700366637558512 l -37.37298410406654 16.575325881287657" fill="#48ff2c" stroke="none" /><path d="M 119.196687751892 91.48605970444005 l 39.9283291431338 -17.708649263860764 a64.67914521728721,64.67914521728721 0 0,0 0.4426187641504055,1.0216251331419766 l -40.227238617126886 17.018724986132185" fill="#30ff39" stroke="none" /><path d="M 119.7369772167798 92.82701384747503 l 38.57984786360517 -14.021028217881799 a62.0486771219921,62.0486771219921 0 0,0 0.3561798508039524,1.0069684019173109 l -38.815480795218924 13.354862189537874" fill="#46ff2c" stroke="none" /><path d="M 119.97218684219823 93.5106431181261 l 31.426366306767914 -10.211045394099074 a54.04363701664073,54.04363701664073 0 0,0 0.2798547220372029,0.8872159460570431 l -31.597476512573323 9.668579281615612" fill="#acff21" stroke="none" /><path d="M 120.53481517161879 95.60439243477599 l 38.731714716731005 -8.290769446917801 a60.609122470968515,60.609122470968515 0 0,0 0.209594149895996,1.0220555107401494 l -38.868688162542 7.622838280014241" fill="#58ff2a" stroke="none" /><path d="M 120.67395015179393 96.31383870115 l 35.13829015922827 -6.265150314366483 a56.692457799592965,56.692457799592965 0 0,0 0.16302628535051106,0.9621903645275979 l -35.240928306099 5.659374161523047" fill="#89ff24" stroke="none" /><path d="M 120.91429891909075 98.10471618934814 l 55.00287853045734 -4.984439861996525 a76.22826529390639,76.22826529390639 0 0,0 0.10717518477843238,1.3078087190851677 l -55.080528199055266 4.036917225703588" fill="#41ffd3" stroke="none" /><path d="M 120.96714384426684 98.82574320788733 l 37.763450119799856 -2.1149274372392948 a58.82262660122112,58.82262660122112 0 0,0 0.047916328351201916,1.0114379592839728 l -37.79426005638455 1.4645783713323222" fill="#6eff28" stroke="none" /><line stroke="#e1ed5e" stroke-width="0.3" x1="184.98032266829074" x2="189.97916517819016" y1="98.17113171792111" y2="98.06355123074" /><path d="M 185.9800911702706 98.14961562048488 a86.0,86.0 0 0,1 -9.607161424134198,41.387399972396054" fill="none" id="id100" stroke="none" /><text fill="#e1ed5e" style="font-size:6.75px; font-family:Arial;" text-anchor="middle"><textPath startOffset="21.466115282336823" xlink:href="#id100">April</textPath></text><path d="M 120.99513854157772 99.54816195383933 l 33.03824961641494 -0.7110187973128547 a54.045899676762836,54.045899676762836 0 0,0 0.012011039481338645,0.9302682444595963 l -33.045593663013996 0.14221429479279563" fill="#acff21" stroke="none" /><path d="M 120.99980553446 99.90962569577887 l 38.60188124971459 -0.16612621263777583 a59.602238716628754,59.602238716628754 0 0,0 -0.004415398301102276,1.0259830654239368 l -38.59902155412398 -0.49836633098984573" fill="#64ff29" stroke="none" /><path d="M 120.9904718944345 100.63252640178507 l 33.025880261632466 0.9952011232874547 a54.04087154315815,54.04087154315815 0 0,0 -0.036021759069824834,0.9295615425039065 l -33.00385636971144 -1.5635399128053675" fill="#acff21" stroke="none" /><path d="M 120.89721153311464 102.0752229133903 l 53.23447680723571 5.286514225960674 a74.49632467376989,74.49632467376989 0 0,0 -0.13770361287934044,1.2749644330389365 l -53.13559089285532 -6.202074980884402" fill="#3fffbd" stroke="none" /><path d="M 120.70491114924044 103.5080841355445 l 37.84836936669246 6.412742521543886 a59.38778881838861,59.38778881838861 0 0,0 -0.17944602295884313,1.0064285940895212 l -37.73237690139443 -7.063289866366625" fill="#67ff28" stroke="none" /><path d="M 120.32669344350535 105.2749913415812 l 37.75902926918413 9.798866353499216 a60.00976894528912,60.00976894528912 0 0,0 -0.2680777077639548,0.9976168779448022 l -37.584763485078405 -10.447374164619566" fill="#5fff29" stroke="none" /><path d="M 120.13307415673323 105.97154293290107 l 34.24020569413821 10.155769394289404 a56.71458158745361,56.71458158745361 0 0,0 -0.28566115906996326,0.9335571960846879 l -34.06031776256212 -10.743653562926148" fill="#88ff25" stroke="none" /><path d="M 120.02730092923936 106.31721596034902 l 37.40379569214721 11.798287545532004 a60.22044774332575,60.22044774332575 0 0,0 -0.3203376504857452,0.9858979132373853 l -37.19516579064522 -12.440384358747185" fill="#5cff2a" stroke="none" /><path d="M 119.54520255179757 107.68017299344265 l 35.32012078996993 13.878834823909823 a58.94908416137915,58.94908416137915 0 0,0 -0.3792317696249179,0.9412221516379817 l -35.075986406087615 -14.484756343390618" fill="#6cff28" stroke="none" /><path d="M 119.26925614724726 108.34839909993367 l 36.14652238678705 15.660469332787105 a60.39316413264695,60.39316413264695 0 0,0 -0.42148364880604444,0.9503343596239683 l -35.87159765324973 -16.28035202890376" fill="#5aff2a" stroke="none" /><path d="M 119.12269723197855 108.67885076344098 l 39.575032025591604 17.961158551113563 a64.46016999880283,64.46016999880283 0 0,0 -0.46726067031606516,1.0064379144001243 l -39.25999673843571 -18.63971653279252" fill="#30ff36" stroke="none" /><line stroke="#e1ed5e" stroke-width="0.3" x1="174.80103733775053" x2="179.2010983576182" y1="140.37084112569926" y2="142.7455964860345" /><path d="M 175.68104954172406 140.8457921977663 a86.0,86.0 0 0,1 -30.038265399797805,32.042727171017184" fill="none" id="id101" stroke="none" /><text fill="#e1ed5e" style="font-size:6.75px; font-family:Arial;" text-anchor="middle"><textPath startOffset="22.206326154141568" xlink:href="#id101">May</textPath></text><path d="M 117.94076556474637 110.91462005526583 l 29.8949040663277 18.187156969140243 a55.99254160181971,55.99254160181971 0 0,0 -0.508026623333776,0.8191006760124552 l -29.577412803325963 -18.699053976517973" fill="#92ff23" stroke="none" /><path d="M 117.35343817320211 111.8261652097733 l 33.57733434535428 22.88256075301315 a61.63310187956422,61.63310187956422 0 0,0 -0.6049996052493813,0.8715470543644869 l -33.17847383294276 -23.457149069564657" fill="#4bff2c" stroke="none" /><path d="M 116.93607887273984 112.41649034213515 l 26.660384856404104 19.54575280231883 a54.05771579073387,54.05771579073387 0 0,0 -0.5566367613307149,0.7457059060819776 l -26.319986828378294 -20.001771587910124" fill="#abff21" stroke="none" /><path d="M 116.27256486870786 113.27417163493432 l 36.433168162528496 29.719969242453573 a68.01757452412306,68.01757452412306 0 0,0 -0.7478823826266207,0.9008725082052391 l -35.91618978000833 -30.34270300777258" fill="#35ff68" stroke="none" /><path d="M 115.56566222782051 114.09645910891815 l 25.86009391046733 23.419225666489876 a55.88845923620256,55.88845923620256 0 0,0 -0.6519085162615469,0.7075179409062476 l -25.45313898621006 -23.86089486219746" fill="#93ff23" stroke="none" /><path d="M 115.07121518719521 114.62390073753431 l 28.07886652791666 27.24548431075425 a60.124661798156346,60.124661798156346 0 0,0 -0.7271057870955764,0.7365543235130144 l -27.605720115765546 -27.72477912824793" fill="#5eff2a" stroke="none" /><path d="M 114.81725581225074 114.88116024355365 l 17.84172859566837 17.91867708962799 a46.28648389800072,46.28648389800072 0 0,0 -0.5694340628288342,0.5573110804612148 l -17.530644580463743 -18.22313827301178" fill="#ffe515" stroke="none" /><path d="M 113.75828350139079 115.86535959552629 l 35.035445053242356 40.40111066927811 a74.47646354603137,74.47646354603137 0 0,0 -0.9757641097125835,0.8315673430473418 l -34.334815466952726 -40.9982024025484" fill="#3fffbd" stroke="none" /><path d="M 112.92097659922987 116.55440617244103 l 25.423525786740417 32.57272149493052 a62.31994492996528,62.31994492996528 0 0,0 -0.8513238972511709,0.6527588620989109 l -24.859073160995752 -33.0055196988568" fill="#43ff2d" stroke="none" /><path d="M 112.34349029814194 116.9893568818739 l 19.419902603985626 26.729202841436873 a54.03911169639651,54.03911169639651 0 0,0 -0.7572492285510094,0.5402772183571244 l -18.956926047585732 -27.059524321638218" fill="#acff21" stroke="none" /><path d="M 111.7513745106137 117.40417183066458 l 21.47337541515052 31.802774660283593 a59.37345863761523,59.37345863761523 0 0,0 -0.8519393005156994,0.5646189135516435 l -20.922761415894858 -32.16769159492655" fill="#67ff28" stroke="none" /><line stroke="#e1ed5e" stroke-width="0.3" x1="143.8653032363475" x2="146.44561519142675" y1="172.8068346515853" y2="177.08958963109032" /><path d="M 144.38136562736335 173.6633856474863 a86.0,86.0 0 0,1 -40.68145358897372,12.25698825130547" fill="none" id="id102" stroke="none" /><text fill="#e1ed5e" style="font-size:6.75px; font-family:Arial;" text-anchor="middle"><textPath startOffset="21.466115282336833" xlink:href="#id102">June</textPath></text><path d="M 110.8373102113329 117.98757091392108 l 20.412365052786043 33.88007326060238 a60.55406440799713,60.55406440799713 0 0,0 -0.8974462087421629,0.5302270388932743 l -19.826150973015498 -34.226418871789406" fill="#58ff2a" stroke="none" /><path d="M 110.21172684928248 118.3499491758327 l 16.06858558141975 28.87442379711598 a54.04439123668143,54.04439123668143 0 0,0 -0.8167836630937426,0.44537557730762184 l -15.56917910645736 -29.146740026183373" fill="#acff21" stroke="none" /><path d="M 109.2508944713604 118.85261126421891 l 17.73651082950278 36.14564460630501 a61.26277983957859,61.26277983957859 0 0,0 -0.9507030415623523,0.4563952340786209 l -17.111695119940194 -36.44559411688319" fill="#50ff2b" stroke="none" /><path d="M 108.59647513512805 119.15986991738527 l 14.830128857261904 33.05347078852072 a57.22795402849276,57.22795402849276 0 0,0 -0.9022377338319268,0.3955145081890341 l -14.258970448772224 -33.303849850004205" fill="#82ff25" stroke="none" /><path d="M 107.2578585660854 119.70592522655815 l 12.46382763093644 33.840733199133645 a57.06303124625883,57.06303124625883 0 0,0 -0.9246396830607679,0.3315428932414109 l -11.879468387245936 -34.050263633415014" fill="#84ff25" stroke="none" /><path d="M 106.57524785965236 119.94407469862006 l 12.685040905535732 38.47632952781668 a61.51343229977254,61.51343229977254 0 0,0 -1.0084648443335806,0.322878596885466 l -12.020854716111211 -38.68898097136186" fill="#4dff2c" stroke="none" /><path d="M 104.83641907484287 120.43548508189849 l 12.449798466320933 52.60455450490716 a75.05771579073385,75.05771579073385 0 0,0 -1.2598253547062326,0.2867321490919279 l -11.542452962221839 -52.81106338757678" fill="#40ffc4" stroke="none" /><path d="M 103.7750983002368 120.6578951692458 l 7.000179285570209 38.306014399191696 a59.940380701544356,59.940380701544356 0 0,0 -1.0165632493910435,0.17674255128722263 l -6.339767064707115 -38.42083552899993" fill="#60ff29" stroke="none" /><path d="M 103.41894727170886 120.7198165907248 l 5.37920373928555 32.59954191292033 a54.040368729797684,54.040368729797684 0 0,0 -0.9191086489359755,0.14354586853974527 l -4.817259226741056 -32.687306088807176" fill="#acff21" stroke="none" /><path d="M 101.98527174616119 120.90594882070398 l 3.8749994671868855 40.80576913357569 a61.989345145456724,61.989345145456724 0 0,0 -1.0631340425531912,0.09173167862624163 l -3.172021106892153 -40.866425064480595" fill="#47ff2c" stroke="none" /><path d="M 101.26447882468166 120.96189622390904 l 1.7019070554730116 28.2133622036298 a49.26464743206034,49.26464743206034 0 0,0 -0.8469107394465246,0.04377561147020192 l -1.2160082476130074 -28.238477621862206" fill="#eeff19" stroke="none" /><line stroke="#e1ed5e" stroke-width="0.3" x1="102.19456741930631" x2="102.32365962044197" y1="184.97166512339345" y2="189.96999836594603" /><path d="M 102.22038585953345 185.97133177190398 a86.0,86.0 0 0,1 -42.740103519485714,-10.115201625700543" fill="none" id="id103" stroke="none" /><text fill="#e1ed5e" style="font-size:6.75px; font-family:Arial;" text-anchor="middle"><textPath startOffset="22.20632615414155" xlink:href="#id103">July</textPath></text><path d="M 100.54218724476979 120.99299961872073 l 0.8724002425331584 33.77854815940289 a54.78981204357716,54.78981204357716 0 0,0 -0.9430117455120459,0.016234802395796694 l -0.2908288071284445 -33.78856043907784" fill="#a2ff22" stroke="none" /><path d="M 99.45781275523022 120.99299961872073 l -1.089171285587506 42.171726840916094 a63.18578953669341,63.18578953669341 0 0,0 -1.0870352296655532,-0.03743969122911859 l 1.814926866927702 -42.146730351260885" fill="#39ff2e" stroke="none" /><path d="M 98.73552117531835 120.96189622390904 l -1.989907889180263 32.9876956845333 a54.04765952352449,54.04765952352449 0 0,0 -0.9281713674725829,-0.0640121317795343 l 2.557442017431776 -32.94855520823748" fill="#abff21" stroke="none" /><path d="M 98.01472825383883 120.90594882070398 l -3.3779328647779647 35.57139808561444 a56.731425835029334,56.731425835029334 0 0,0 -0.9713700703982789,-0.10068647948936736 l 3.989735531781837 -35.50798223766931" fill="#88ff25" stroke="none" /><path d="M 96.22490169976321 120.6578951692458 l -6.8096843815177674 37.26359816384666 a58.88070154435532,58.88070154435532 0 0,0 -0.9954550440468832,-0.1907813283945531 l 7.450107040136346 -37.14085963710364" fill="#6dff28" stroke="none" /><path d="M 95.51606077576429 120.51570834832081 l -9.491586230964465 43.427576766631056 a65.4527235723692,65.4527235723692 0 0,0 -1.0986079155532833,-0.2500395848196284 l 10.23771429591061 -43.25776044823374" fill="#31ff44" stroke="none" /><path d="M 95.16358092515715 120.4354850818985 l -2.557112558617977 10.804654174032864 a32.10312462588291,32.10312462588291 0 0,0 -0.5366522118759783,-0.1318960569956693 l 2.742718055237166 -10.759036858723166" fill="#ff0000" stroke="none" /><path d="M 94.46302465271185 120.25689768951611 l -11.202813140106391 40.98523568920127 a63.48873458637616,63.48873458637616 0 0,0 -1.0517024732894702,-0.2972216241236663 l 11.906646781500477 -40.78632527173908" fill="#35ff2f" stroke="none" /><path d="M 93.42475214034765 119.94407469862007 l -11.953758101559048 36.25819886876988 a59.17786424039268,59.17786424039268 0 0,0 -0.9646844795056295,-0.3272733521251229 l 12.576112314001904 -36.04706252974663" fill="#69ff28" stroke="none" /><path d="M 92.40401165467489 119.57807347666478 l -12.325179939945404 31.767199672689586 a55.07440440560278,55.07440440560278 0 0,0 -0.8808729375899719,-0.3505175210126305 l 12.870173953577234 -31.55033530727089" fill="#9eff22" stroke="none" /><path d="M 91.07499286063937 119.00905698771935 l -16.15871848069733 34.415882884110914 a59.02048365856579,59.02048365856579 0 0,0 -0.9159060929916818,-0.43969058415762285 l 16.748737241689252 -34.13263802345373" fill="#6bff28" stroke="none" /><path d="M 90.10565033884886 118.52300852407294 l -17.46785659620465 32.701215108577316 a58.07418891416258,58.07418891416258 0 0,0 -0.8776867990755375,-0.4785848230031052 l 18.028166207148832 -32.39568963381444" fill="#77ff27" stroke="none" /><line stroke="#e1ed5e" stroke-width="0.3" x1="58.666819895761336" x2="56.23545636021788" y1="174.27360380694188" y2="178.64263932499728" /><path d="M 58.180547188652646 175.14741091055294 a86.0,86.0 0 0,1 -31.652253787137756,-30.449443065178592" fill="none" id="id104" stroke="none" /><text fill="#e1ed5e" style="font-size:6.75px; font-family:Arial;" text-anchor="middle"><textPath startOffset="22.20632615414155" xlink:href="#id104">August</textPath></text><path d="M 89.4739219176387 118.17145234162733 l -19.794773103477503 34.17225040976301 a60.4914641446187,60.4914641446187 0 0,0 -0.8965184366828556,-0.5296788948073309 l 20.38005941118874 -33.82645294266193" fill="#59ff2a" stroke="none" /><path d="M 88.8546689885994 117.79835938074946 l -20.110831150859955 32.1156724643206 a58.89276906500658,58.89276906500658 0 0,0 -0.8545570696169285,-0.5454187537978857 l 20.660670022523806 -31.764739281698915" fill="#6dff28" stroke="none" /><path d="M 88.24862548938628 117.40417183066458 l -18.492693363715443 27.38828658921582 a54.046905303483776,54.046905303483776 0 0,0 -0.7665475548610116,-0.5272383979871818 l 18.961397803199343 -27.065907401863537" fill="#abff21" stroke="none" /><path d="M 87.65650970185807 116.9893568818739 l -19.417390460623132 26.72574517273112 a54.03483778283252,54.03483778283252 0 0,0 -0.7477779038421882,-0.5531882164175979 l 19.874553334883885 -26.387547007573755" fill="#acff21" stroke="none" /><path d="M 86.24171649860922 115.8653595955263 l -28.011357899922448 32.301287133408174 a63.75522566742489,63.75522566742489 0 0,0 -0.8229210218724626,-0.7261321224158769 l 28.563221274701498 -31.814331869220005" fill="#32ff2f" stroke="none" /><path d="M 85.44109423537348 115.13401014063109 l -22.91672510169549 23.821979184849244 a54.05545313061176,54.05545313061176 0 0,0 -0.6650108995543605,-0.6508531314547163 l 23.323385953625646 -23.423975950471956" fill="#abff21" stroke="none" /><path d="M 84.19399662182784 113.82643327865904 l -19.64576658360578 17.18529816661006 a47.101544355321444,47.101544355321444 0 0,0 -0.5285634161007478,-0.6148386653644077 l 19.938672509277307 -16.84458240208412" fill="#fff116" stroke="none" /><path d="M 83.72743513129214 113.27417163493432 l -25.60109077243197 20.88381737585172 a54.038608883036034,54.038608883036034 0 0,0 -0.5817695964727393,-0.7258470227645275 l 25.95677828095957 -20.440042519508932" fill="#acff21" stroke="none" /><path d="M 82.6465618267979 111.8261652097733 l -27.31156521685223 18.612512354512468 a54.05067640368729,54.05067640368729 0 0,0 -0.5173341955995551,-0.773344429595929 l 27.627902517862516 -18.13963101071072" fill="#abff21" stroke="none" /><path d="M 82.05923443525364 110.91462005526583 l -32.036713167388996 19.490168955146604 a58.4995690171196,58.4995690171196 0 0,0 -0.5159637593038923,-0.8647849387733113 l 32.36745780239112 -18.935821922487182" fill="#72ff27" stroke="none" /><line stroke="#e1ed5e" stroke-width="0.3" x1="26.63291911575756" x2="22.317208475507996" y1="142.92168965132927" y2="145.44649492493687" /><path d="M 25.769776987707644 143.4266507060508 a86.0,86.0 0 0,1 -11.730757126820373,-40.83630448921669" fill="none" id="id105" stroke="none" /><text fill="#e1ed5e" style="font-size:6.75px; font-family:Arial;" text-anchor="middle"><textPath startOffset="21.46611528233685" xlink:href="#id105">September</textPath></text><path d="M 81.69416730710424 110.29060199501025 l -28.80610040287677 16.19331495307233 a54.0456482700826,54.0456482700826 0 0,0 -0.4488969535613448,-0.8148783616480892 l 29.080573765889632 -15.69506607302642" fill="#acff21" stroke="none" /><path d="M 81.18737489456691 109.33194174019688 l -29.60494142803871 14.685435290400331 a54.04715671016401,54.04715671016401 0 0,0 -0.40624607980634897,-0.8369872505152526 l 29.85334076445978 -14.173659083919794" fill="#abff21" stroke="none" /><path d="M 81.02952815118164 109.00673069616217 l -29.849707009526448 14.171933863147153 a54.04313420328025,54.04313420328025 0 0,0 -0.3917493719652859,-0.8437932955529927 l 30.08923099833156 -13.656020500315334" fill="#acff21" stroke="none" /><path d="M 80.45479744820244 107.68017299344265 l -50.56247730172193 19.868229639734658 a75.32596671854424,75.32596671854424 0 0,0 -0.46381325675508195,-1.210870055699544 l 50.896984838070516 -18.994936017201958" fill="#40ffc7" stroke="none" /><path d="M 80.20201598880116 107.00284435728193 l -31.149412818194463 11.018015251610949 a54.040620136477905,54.040620136477905 0 0,0 -0.3026510680744668,-0.8796456716490645 l 31.33445471721216 -10.480196876872588" fill="#acff21" stroke="none" /><path d="M 79.97269907076064 106.31721596034903 l -31.516205585378362 9.941163696348127 a54.046905303483776,54.046905303483776 0 0,0 -0.27222455285738184,-0.8896455895451438 l 31.682656910741873 -9.397191134250935" fill="#abff21" stroke="none" /><path d="M 79.76711848015287 105.62410040840567 l -31.83899331229863 8.850231990696559 a54.04615108344307,54.04615108344307 0 0,0 -0.2414368285457553,-0.8984762557235546 l 31.98661821718616 -8.300864801797465" fill="#acff21" stroke="none" /><path d="M 79.58551787078972 104.9243191809786 l -32.12769756087151 7.7497453199318125 a54.049167963605896,54.049167963605896 0 0,0 -0.2103784952985483,-0.9063050516293796 l 32.25633662210061 -7.195571610953859" fill="#abff21" stroke="none" /><path d="M 79.1416061653843 102.43462659150553 l -32.830557536361354 3.832037549282872 a54.053441877169874,54.053441877169874 0 0,0 -0.09991572426754268,-0.9250955154972381 l 32.89165556212995 -3.266345711900852" fill="#abff21" stroke="none" /><path d="M 79.10278846688536 102.07522291339032 l -38.18788408069857 3.7922941026164385 a59.375721297737336,59.375721297737336 0 0,0 -0.0922455656513589,-1.0179221302637487 l 38.24750424262701 -3.1343905838041235" fill="#67ff28" stroke="none" /><path d="M 79.07016306316243 101.71520430193888 l -32.929977611792985 2.6986182182378977 a54.040368729797684,54.040368729797684 0 0,0 -0.06799678632807123,-0.927762125748214 l 32.971550956785386 -2.1313829559929234" fill="#acff21" stroke="none" /><path d="M 79.04373962182676 101.35467743843564 l -32.97581596847494 2.1316586595300158 a54.04464264336166,54.04464264336166 0 0,0 -0.05202092584769798,-0.9288685766920545 l 33.00762324521017 -1.5637183665025238" fill="#acff21" stroke="none" /><path d="M 79.0095281055655 100.63252640178507 l -33.025628969020296 0.9951935508416134 a54.040620136477905,54.040620136477905 0 0,0 -0.020015455042135668,-0.9300395465876263 l 33.03786648674744 -0.4265641884638582" fill="#acff21" stroke="none" /><line stroke="#e1ed5e" stroke-width="0.3" x1="15.007084014347285" x2="10.007500721073583" y1="101.09737516637583" y2="101.16192664675087" /><path d="M 14.007167355692545 101.11028546245083 a86.0,86.0 0 0,1 10.666146001902534,-42.60595125391555" fill="none" id="id106" stroke="none" /><text fill="#e1ed5e" style="font-size:6.75px; font-family:Arial;" text-anchor="middle"><textPath startOffset="22.20632615414155" xlink:href="#id106">October</textPath></text><path d="M 79.00019446554 99.90962569577889 l -54.29202686692575 -0.23364998046297167 a75.29252963007303,75.29252963007303 0 0,0 0.01673284285108294,-1.2959771190561422 l 54.27996101695695 1.1681633575795858" fill="#40ffc7" stroke="none" /><path d="M 79.01574976396665 99.18683210126434 l -33.01558882461362 -1.279398438736228 a54.040368729797684,54.040368729797684 0 0,0 0.04402074850943332,-0.9292084258251042 l 32.98867446787069 1.8475179711843412" fill="#acff21" stroke="none" /><path d="M 79.05617556472873 98.46500227214037 l -38.66145242604791 -2.8335436927075346 a59.765150245420806,59.765150245420806 0 0,0 0.08402842431435048,-1.025359612829107 l 38.60694951791407 3.49861722274442" fill="#62ff29" stroke="none" /><path d="M 79.16333360222342 97.38593545837743 l -36.37448845673393 -4.563362424641671 a57.65961929845564,57.65961929845564 0 0,0 0.13202405660342295,-0.983732571341488 l 36.29054840107267 5.188813338047818" fill="#7cff26" stroke="none" /><path d="M 79.26566170972629 96.67025291283419 l -41.58435001097083 -6.678070280432653 a63.117155512989335,63.117155512989335 0 0,0 0.1815013108365723,-1.0712310107575898 l 41.46323683861404 7.392887079506071" fill="#3aff2e" stroke="none" /><path d="M 79.3925641242962 95.95851677861259 l -38.129307277596666 -7.4778325908666154 a59.85565665030528,59.85565665030528 0 0,0 0.2069885680674051,-1.0093497683903825 l 37.99493941361426 8.133058015420401" fill="#61ff29" stroke="none" /><path d="M 79.54389044137918 95.25157060432595 l -41.9143309371133 -9.7294766901521 a64.02875613552018,64.02875613552018 0 0,0 0.2584542076376772,-1.0714595478333715 l 41.740643929214805 10.44952146964487" fill="#2fff30" stroke="none" /><path d="M 79.71946130924805 94.55025226153421 l -43.04606856431064 -11.567257575617047 a65.5731473722016,65.5731473722016 0 0,0 0.3023022933919425,-1.0875421918562709 l 42.840579500352334 12.30651107089226" fill="#32ff46" stroke="none" /><path d="M 79.91906864156998 93.8553929516997 l -35.67424454772544 -10.916038234387972 a58.30699150005986,58.30699150005986 0 0,0 0.3019316944574028,-0.9572059817058144 l 35.48105736949984 11.5284943825202" fill="#74ff27" stroke="none" /><path d="M 80.14247586403 93.16781622104843 l -36.523295380170175 -12.566212411055256 a59.62461391116964,59.62461391116964 0 0,0 0.34226492928076535,-0.9676290449677866 l 36.3015773700796 13.193039082449653" fill="#64ff29" stroke="none" /><path d="M 80.38941819471856 92.48833698450439 l -41.213446589128864 -15.786452720198652 a65.1334370884712,65.1334370884712 0 0,0 0.41005050007004656,-1.0435337963321583 l 40.935602539177125 16.493535521426573" fill="#31ff3f" stroke="none" /><path d="M 80.65960295795068 91.81776055985345 l -37.28021870151328 -15.771944864089967 a61.479240991260625,61.479240991260625 0 0,0 0.42072086106022993,-0.9710817536651314 l 37.00320713061037 16.411325762341697" fill="#4dff2c" stroke="none" /><path d="M 80.95270993114464 91.15688171328213 l -35.1618949039558 -16.324673730319756 a59.766658685502215,59.766658685502215 0 0,0 0.441253843363992,-0.9293931278844957 l 34.875682866750054 16.927509273844784" fill="#62ff29" stroke="none" /><path d="M 81.43458229118936 90.18545643968196 l -37.45422441278851 -19.800045589213397 a63.36579671974141,63.36579671974141 0 0,0 0.5180663849213488,-0.9598983306113602 l 37.1078499286487 20.44182490315723" fill="#37ff2e" stroke="none" /><line stroke="#e1ed5e" stroke-width="0.3" x1="26.266209847984243" x2="21.928928074336255" y1="57.711370442889674" y2="55.22380399835377" /><path d="M 25.398753493254645 57.213857153982495 a86.0,86.0 0 0,1 29.58750427330803,-30.492523968695096" fill="none" id="id107" stroke="none" /><text fill="#e1ed5e" style="font-size:6.75px; font-family:Arial;" text-anchor="middle"><textPath startOffset="21.46611528233685" xlink:href="#id107">November</textPath></text><path d="M 81.78341655067845 89.55222093294921 l -42.11949752066643 -24.156846191018637 a69.55517778043817,69.55517778043817 0 0,0 0.6046011806816954,-1.0334594021372308 l 41.69743666551441 24.87828500550976" fill="#38ff7d" stroke="none" /><path d="M 82.15384107792192 88.93136811851018 l -31.344760225272328 -19.440800334792925 a57.884125463905185,57.884125463905185 0 0,0 0.532457888336326,-0.842220509309605 l 31.00547474069004 19.977468491816744" fill="#7aff26" stroke="none" /><path d="M 82.54541684631803 88.32363383020206 l -32.95955226661386 -22.048524314165313 a60.65437567341075,60.65437567341075 0 0,0 0.58798794939255,-0.8627997618314317 l 32.57513985155257 22.612602099267157" fill="#57ff2a" stroke="none" /><path d="M 82.95767976084542 87.72973835380427 l -35.281050940207926 -25.401924157868454 a64.47424877289598,64.47424877289598 0 0,0 0.6562170234697554,-0.8950792825412304 l 34.83857130422454 26.005465884081183" fill="#30ff36" stroke="none" /><path d="M 83.39014120810768 87.1503855733568 l -34.61702966005219 -26.78020862793052 a64.76663474200886,64.76663474200886 0 0,0 0.6897520749386205,-0.8759150897521575 l 34.1509235045196 27.372116111635723" fill="#30ff3a" stroke="none" /><path d="M 84.07557802195018 86.31012108654704 l -43.12633925253847 -37.07477503180608 a77.8719621692805,77.8719621692805 0 0,0 0.8825790759736724,-1.008940453057816 l 42.48176831298695 37.81163104106683" fill="#44ffe6" stroke="none" /><path d="M 84.5562425177563 85.77008943001954 l -30.64845380772288 -28.23954968818331 a62.67493116245661,62.67493116245661 0 0,0 0.7378710036481654,-0.7871093401239404 l 30.157815482104258 28.7629284451853" fill="#3fff2d" stroke="none" /><path d="M 85.05521093208273 85.24692304244772 l -30.17995755229845 -29.792808337493025 a63.408033042020826,63.408033042020826 0 0,0 0.7734699070082776,-0.7701483814196571 l 29.66265184512286 30.307892569562792" fill="#36ff2e" stroke="none" /><path d="M 86.10567301691215 84.25364557470407 l -26.551421784920965 -30.090561308207693 a61.130037112414705,61.130037112414705 0 0,0 0.7949996297311114,-0.6894158448463765 l 26.02952835654308 30.543142146473752" fill="#51ff2b" stroke="none" /><path d="M 86.65592168130627 83.78471172551755 l -28.021126701929308 -34.05035824850137 a65.0977373398779,65.0977373398779 0 0,0 0.8713691774943091,-0.704586608535959 l 27.4308541258705 34.527650954301464" fill="#31ff3f" stroke="none" /><path d="M 88.09926311788651 82.69761687909137 l -23.286862706903925 -33.85657747331824 a62.091919070992454,62.091919070992454 0 0,0 0.885830831855162,-0.5981169319322424 l 22.700627180642226 34.25240631754915" fill="#46ff2c" stroke="none" /><path d="M 89.00827224532344 82.1063720568725 l -24.302732435920507 -39.56284779931165 a67.43104273913565,67.43104273913565 0 0,0 0.9942480355493025,-0.5990233167012624 l 23.618122334153558 39.975317725471534" fill="#34ff60" stroke="none" /><line stroke="#e1ed5e" stroke-width="0.3" x1="56.762969772571076" x2="54.21961505331055" y1="26.818313649435495" y2="22.513508569990535" /><path d="M 56.25429882871897 25.957352633546506 a86.0,86.0 0 0,1 42.265352541879196,-11.944610805530505" fill="none" id="id108" stroke="none" /><text fill="#e1ed5e" style="font-size:6.75px; font-family:Arial;" text-anchor="middle"><textPath startOffset="22.20632615414155" xlink:href="#id108">December</textPath></text><path d="M 89.63071344664047 81.73862282372117 l -21.577004345572046 -37.999317760298446 a64.69800071830481,64.69800071830481 0 0,0 0.9731685672434277,-0.5415672540437192 l 20.919711689256573 38.36510041190235" fill="#30ff39" stroke="none" /><path d="M 90.58718382345135 81.22770947309562 l -21.07195197075945 -42.024490539781645 a68.01154076379746,68.01154076379746 0 0,0 1.0510332929878072,-0.5157374722816396 l 20.345447410761217 42.380983172198114" fill="#35ff68" stroke="none" /><path d="M 91.23893434514133 80.91482961587045 l -16.147505109878036 -35.17584486194518 a59.705064048844726,59.705064048844726 0 0,0 0.9377046543521674,-0.42072074497321493 l 15.539618337059093 35.44858593743493" fill="#63ff29" stroke="none" /><path d="M 91.90106846888425 80.62456947434976 l -19.078689755066563 -45.64278960126001 a70.46979528313182,70.46979528313182 0 0,0 1.1232084375270894,-0.45818492375159836 l 18.29019744795109 45.96443541119519" fill="#39ff89" stroke="none" /><path d="M 92.91201910852362 80.23233633223022 l -12.774742718413684 -35.62746872012137 a58.84852148928529,58.84852148928529 0 0,0 0.9564790199315021,-0.33369674909623664 l 12.159581694418897 35.84208632238982" fill="#6dff28" stroke="none" /><path d="M 93.94186890950719 79.89281104454417 l -9.975500114685167 -33.10909961092134 a55.579229019513946,55.579229019513946 0 0,0 0.9184064838648399,-0.26810803700414815 l 9.404103413096905 33.275905976844186" fill="#97ff23" stroke="none" /><path d="M 95.33964822691252 79.52364482259891 l -8.496312814711532 -37.33055515186576 a59.28521489285286,59.28521489285286 0 0,0 0.9970002375968108,-0.21790563581971667 l 7.8524698529612005 37.47127428578135" fill="#68ff28" stroke="none" /><path d="M 96.75951476605007 79.25152402106235 l -5.955967634534052 -38.13541567841926 a59.597713396384535,59.597713396384535 0 0,0 1.0149519526700084,-0.14957753463729417 l 5.298646701435395 38.232287697217515" fill="#64ff29" stroke="none" /><path d="M 98.55514903715128 79.0497635885617 l -2.8910338247054432 -41.91978526395982 a63.019358314378074,63.019358314378074 0 0,0 1.0828464827429454,-0.06532025696452451 l 2.169025293122875 41.96333879030465" fill="#3bff2e" stroke="none" /></svg>