<?xml version="1.0" encoding="utf-8" ?>
<svg baseProfile="full" height="200mm" version="1.1" viewBox="0,0,200,200" width="200mm" xmlns="http://www.w3.org/2000/svg" xmlns:ev="http://www.w3.org/2001/xml-events" xmlns:xlink="http://www.w3.org/1999/xlink"><defs /><rect fill="#1a1a1a" height="200" width="200" x="0" y="0" /><text alignment-baseline="middle" fill="#e1ed5e" style="dominant-baseline: central; font-size:9.0px; font-family:Arial;" text-anchor="middle" x="100.0" y="100.0">2024</text><line stroke="#e1ed5e" stroke-width="0.3" x1="100.0" x2="100.0" y1="15.0" y2="10.0" /><path d="M 100.0 14.0 a86.0,86.0 0 0,1 42.35913384403234,11.155469271406648" fill="none" id="id109" stroke="none" /><text fill="#e1ed5e" style="font-size:6.75px; font-family:Arial;" text-anchor="middle"><textPath startOffset="22.145653131862478" xlink:href="#id109">January</textPath></text><path d="M 100.36049292484886 79.00309439819443 l 0.6647735223214487 -38.71972494499176 a59.72543122615676,59.72543122615676 0 0,0 1.0249642964424044,0.026399444477696637 l -1.3293511328345944 38.70260778316402" fill="#a6ff21" stroke="none" /><path d="M 102.15924093988457 79.11130261209362 l 4.784446751775262 -46.285182223215806 a67.53180658599949,67.53180658599949 0 0,0 1.1521057999905948,0.1290958579516803 l -5.578288453366652 46.196230604757154" fill="#30ff2f" stroke="none" /><path d="M 102.87502721639298 79.19773525538626 l 4.303927922122686 -31.141078445183517 a52.4370889601423,52.4370889601423 0 0,0 0.8906187222428257,0.13089028202960387 l -4.837871749973193 31.06260708985503" fill="#ffdb14" stroke="none" /><path d="M 104.9986988182912 79.60360301121754 l 8.337930709626338 -34.02160262110683 a56.02842464951904,56.02842464951904 0 0,0 0.9321921429267518,0.23695959742296227 l -8.920728145778483 33.8734577918486" fill="#e3ff1b" stroke="none" /><path d="M 105.69591212413111 79.78721728523813 l 10.631893828068682 -37.72884045783137 a60.1982470100873,60.1982470100873 0 0,0 0.9922390702247968,0.28882633229528626 l -11.277992910675083 37.54077043123357" fill="#9eff22" stroke="none" /><path d="M 106.38641147887787 79.99465700312896 l 11.893788953325748 -37.25712449481636 a60.10953261403796,60.10953261403796 0 0,0 0.9802927700442602,0.32224170460207274 l -12.53160446101775 37.04746186881226" fill="#9fff22" stroke="none" /><path d="M 107.74402155503746 80.48000691201159 l 11.91436030970394 -30.03197101665339 a53.30899665317012,53.30899665317012 0 0,0 0.8477286481304734,0.3447638611653471 l -12.428143419024853 29.82301989890875" fill="#ffeb16" stroke="none" /><path d="M 108.73861861582097 80.90454125486305 l 17.685543058407525 -38.64610331497309 a63.500585110117726,63.500585110117726 0 0,0 0.9873170340103092,0.4621142244763931 l -18.34634880628934 38.336812858926166" fill="#6bff28" stroke="none" /><path d="M 109.3889696526874 81.21577127319529 l 23.905208453832547 -47.82643037196395 a74.46799447656049,74.46799447656049 0 0,0 1.1385545657146259,0.5813540737763532 l -24.722690241260754 47.40901834651476" fill="#3cffa3" stroke="none" /><path d="M 110.02825361518725 81.54914285379988 l 17.411261077591302 -32.034759311562624 a57.46063379127952,57.46063379127952 0 0,0 0.8626094645207067,0.47847492897355726 l -17.95861473026811 31.73115146715592" fill="#cbff1d" stroke="none" /><line stroke="#e1ed5e" stroke-width="0.3" x1="143.13028292997686" x2="145.6673583964461" y1="26.7553504044142" y2="22.446841604673864" /><path d="M 143.63769802327073 25.89364864446614 a86.0,86.0 0 0,1 29.32050498858742,28.57503671076993" fill="none" id="id110" stroke="none" /><text fill="#e1ed5e" style="font-size:6.75px; font-family:Arial;" text-anchor="middle"><textPath startOffset="20.669276256404974" xlink:href="#id110">February</textPath></text><path d="M 110.65571695917076 81.90426304109057 l 19.807857314628624 -33.638072131471475 a60.036791724202494,60.036791724202494 0 0,0 0.8835907487302243,0.5305708569882316 l -20.382380819916282 33.29308727394732" fill="#a1ff22" stroke="none" /><path d="M 111.27062007382361 82.28071324371311 l 19.749633616852282 -31.049704372643916 a57.79853488426522,57.79853488426522 0 0,0 0.8326136779516572,0.5396901266951902 l -20.279732927060948 30.70610040424483" fill="#c5ff1e" stroke="none" /><path d="M 112.45986205192187 83.09580414077388 l 22.447406588544435 -30.454218186621794 a58.833126594425075,58.833126594425075 0 0,0 0.8078264860255703,0.6062080553143359 l -22.96688606348077 30.064391104043445" fill="#b4ff20" stroke="none" /><path d="M 113.03279911837588 83.53348406188908 l 20.04166138677855 -25.321984452771737 a53.29351463945515,53.29351463945515 0 0,0 0.7124815800041777,0.5739247269266075 l -20.47339373713799 24.97421143205172" fill="#ffeb16" stroke="none" /><path d="M 113.59037401385872 83.9905735841838 l 28.633235750569177 -33.7298797169233 a65.24440049617337,65.24440049617337 0 0,0 0.8476195850441104,0.7321536095592852 l -29.20803481537615 33.23338197489929" fill="#51ff2b" stroke="none" /><path d="M 113.86319453409587 84.22622945171908 l 25.496214526798518 -29.010011855950303 a59.62172630889133,59.62172630889133 0 0,0 0.7629734771601884,0.6822555880045648 l -25.99045303078208 28.568060738062353" fill="#a7ff21" stroke="none" /><path d="M 114.65682725009322 84.96080404539774 l 24.364355378686096 -24.99997500109018 a55.908746226039746,55.908746226039746 0 0,0 0.6815757509176019,0.675750352153423 l -24.78992304973366 24.5780446387081" fill="#e5ff1a" stroke="none" /><path d="M 115.41159269507618 85.73525988315684 l 33.85522246728884 -31.335888486598606 a67.13148594565497,67.13148594565497 0 0,0 0.7755358493484324,0.8524497523183067 l -34.38815601747915 30.75010115872263" fill="#35ff2f" stroke="none" /><path d="M 116.35404254752997 86.82634096563983 l 30.146869102671133 -24.284183764219183 a59.711177943689,59.711177943689 0 0,0 0.6361616653304065,0.8037694823829826 l -30.559297198643097 23.763094337921522" fill="#a6ff21" stroke="none" /><path d="M 117.01052211995028 87.68569379921539 l 37.514358217982426 -27.157502325008366 a67.31260093149531,67.31260093149531 0 0,0 0.6695517149174989,0.9418083372899226 l -37.97502503142989 26.50951676100894" fill="#33ff2f" stroke="none" /><path d="M 117.42321728460499 88.27688183743584 l 30.26135592694401 -20.361190789053442 a57.47365834250006,57.47365834250006 0 0,0 0.5437433961178472,0.8232968045185829 l -30.60642376198258 19.8387141061958" fill="#cbff1d" stroke="none" /><line stroke="#e1ed5e" stroke-width="0.3" x1="172.87174338648825" x2="177.1583165268699" y1="56.24261187166439" y2="53.66864786411523" /><path d="M 173.72905801456457 55.72781907015455 a86.0,86.0 0 0,1 12.242430191666344,42.057860355516425" fill="none" id="id111" stroke="none" /><text fill="#e1ed5e" style="font-size:6.75px; font-family:Arial;" text-anchor="middle"><textPath startOffset="22.145653131862474" xlink:href="#id111">March</textPath></text><path d="M 118.00360718960297 89.18935116829356 l 34.0430274502305 -20.441859848237485 a60.70890771643223,60.70890771643223 0 0,0 0.5288216786019649,0.8980548217278079 l -34.38892283896223 19.854453858216118" fill="#96ff23" stroke="none" /><path d="M 118.36410011445183 89.81374322990088 l 37.77949306200567 -20.95564795309085 a64.20219065228076,64.20219065228076 0 0,0 0.5263193183653618,0.968368265211997 l -38.133657729986375 20.30402485440425" fill="#60ff29" stroke="none" /><path d="M 118.70294669586156 90.45014215332178 l 33.860269588589745 -17.289294915906734 a59.01891075900484,59.01891075900484 0 0,0 0.45298443610881667,0.9062723144615976 l -34.1520739379103 16.705490745281388" fill="#b1ff20" stroke="none" /><path d="M 119.16976305983485 91.42560881287824 l 36.63395694158646 -16.385902974851017 a61.13159126547616,61.13159126547616 0 0,0 0.42025383414867035,0.9616230157117219 l -36.9098446577521 15.754617889363447" fill="#8fff24" stroke="none" /><path d="M 119.31412917781788 91.75594674310238 l 36.49171163906412 -15.576141767411748 a60.67696070400449,60.67696070400449 0 0,0 0.4006822038914676,0.9614914261048463 l -36.75371968749207 14.947417831865623" fill="#96ff23" stroke="none" /><path d="M 119.83427380445688 93.10060997987247 l 33.660285717110334 -11.708794667293915 a56.638612586888854,56.638612586888854 0 0,0 0.3115516883666956,0.9210472075490103 l -33.8563228270494 11.129245785270744" fill="#d9ff1c" stroke="none" /><path d="M 120.26092885502905 94.47779374421319 l 31.163382707871534 -8.493718534437841 a53.30014978819014,53.30014978819014 0 0,0 0.23302449643997059,0.8848319683815778 l -31.304596685116234 7.957506061683465" fill="#ffeb16" stroke="none" /><path d="M 120.43855184770803 95.1765574152323 l 41.180857303750244 -9.718570194024082 a63.31209773679406,63.31209773679406 0 0,0 0.24055322530455317,1.0599218957406416 l -41.34162139061246 9.010213964344414" fill="#6dff28" stroke="none" /><path d="M 120.592083275326 95.88100663000786 l 61.776249825978 -12.35698010997641 a84.0,84.0 0 0,0 0.27069483087137236,1.4163897398667418 l -61.97927094913153 11.294687805076354" fill="#4dd2ff" stroke="none" /><path d="M 120.82617615685814 97.30363454192243 l 36.508564147373576 -4.726764555795355 a57.81327965923187,57.81327965923187 0 0,0 0.11897949206469641,0.9853208737063865 l -36.58432572569794 4.099350005165555" fill="#c5ff1e" stroke="none" /><path d="M 120.9064616781168 98.02013634271609 l 37.30007911120655 -3.532356272577297 a58.4669646827533,58.4669646827533 0 0,0 0.08604771762871605,1.0000049113274043 l -37.35522045153301 2.89153031387423" fill="#baff1f" stroke="none" /><path d="M 120.98066250479742 99.09900007780936 l 36.26157918085807 -1.5572282339984371 a57.29500081915416,57.29500081915416 0 0,0 0.03376397945966073,0.9830014222349933 l -36.28296784731458 0.934520547199324" fill="#ceff1d" stroke="none" /><line stroke="#e1ed5e" stroke-width="0.3" x1="184.99686870605535" x2="189.99668451229388" y1="99.2704041080226" y2="99.22748670261217" /><path d="M 185.99683186730306 99.26182062694052 a86.0,86.0 0 0,1 -10.086455211305974,41.156179273409016" fill="none" id="id112" stroke="none" /><text fill="#e1ed5e" style="font-size:6.75px; font-family:Arial;" text-anchor="middle"><textPath startOffset="21.40746469413373" xlink:href="#id112">April</textPath></text><path d="M 120.99922638620191 100.18025310272382 l 31.60327788779791 0.2712761313560549 a52.60444215601376,52.60444215601376 0 0,0 -0.015502199452208801,0.9029254004219891 l -31.593964256747032 -0.8137484477471151" fill="#ffde14" stroke="none" /><path d="M 120.96210409425399 101.26102812881392 l 32.063526881830455 1.928862156449863 a53.12149226484424,53.12149226484424 0 0,0 -0.06257215693489661,0.9097854291326386 l -32.02569076373049 -2.4789910097368453" fill="#ffe715" stroke="none" /><path d="M 120.93736805541906 101.62068470465957 l 35.61807602865144 2.7570643490740165 a56.724623774194306,56.724623774194306 0 0,0 -0.0834834583187596,0.9702043312011904 l -35.565498947634936 -3.368089727650864" fill="#d7ff1c" stroke="none" /><path d="M 120.77682067341334 103.0534771498775 l 31.960767289795722 4.697132162132203 a53.30408172818124,53.30408172818124 0 0,0 -0.14082051986758728,0.9041687553747612 l -31.875425277789866 -5.245089099438415" fill="#ffeb16" stroke="none" /><path d="M 120.43855184770803 104.8234425847677 l 31.438737638657404 7.419456479478739 a53.30236150443513,53.30236150443513 0 0,0 -0.21780988015324532,0.888738638829115 l -31.306740231987863 -7.958050942915953" fill="#ffeb16" stroke="none" /><path d="M 118.5362547648365 109.86951160357373 l 33.04700088261334 17.59566659026443 a58.43944110281555,58.43944110281555 0 0,0 -0.47907721674905723,0.8814481192267821 l -32.74007831624894 -18.160369542965814" fill="#bbff1f" stroke="none" /><line stroke="#e1ed5e" stroke-width="0.3" x1="174.33088141563837" x2="178.70328620479359" y1="141.23008692659167" y2="143.65538615756765" /><path d="M 175.20536237346943 141.71514677278685 a86.0,86.0 0 0,1 -30.301960400862466,31.631185727798858" fill="none" id="id113" stroke="none" /><text fill="#e1ed5e" style="font-size:6.75px; font-family:Arial;" text-anchor="middle"><textPath startOffset="22.145653131862474" xlink:href="#id113">May</textPath></text><path d="M 118.36410011445183 110.18625677009912 l 29.448233750129475 16.334438852718684 a54.675100053830135,54.675100053830135 0 0,0 -0.46230826350847976,0.8168544040972522 l -29.163492121599617 -16.83755002691506" fill="#fbff18" stroke="none" /><path d="M 118.00360718960297 110.81064883170644 l 29.285620495044967 17.585173663052903 a55.159711657733986,55.159711657733986 0 0,0 -0.4944202288280102,0.8075982866678467 l -28.97943230176155 -18.08530906584531" fill="#f2ff19" stroke="none" /><path d="M 117.01052211995028 112.31430620078461 l 27.68574247533088 20.04234248856139 a55.17887986519063,55.17887986519063 0 0,0 -0.5620309983233738,0.7625029904042334 l -27.337609457423678 -20.5146517882345" fill="#f2ff19" stroke="none" /><path d="M 116.57777611688842 112.89097897827486 l 27.975069945933207 21.753583595655517 a56.437592154843536,56.437592154843536 0 0,0 -0.6012849494666164,0.7597038912214963 l -27.59751856582503 -22.230607430791697" fill="#dcff1b" stroke="none" /><path d="M 116.1254893667686 113.45245675266167 l 28.777697701815544 24.007378937140583 a58.47679453273106,58.47679453273106 0 0,0 -0.6496644796744572,0.7653031234984119 l -28.361338658633972 -24.49784884308855" fill="#baff1f" stroke="none" /><path d="M 115.41159269507618 114.26474011684316 l 14.913647514849329 13.803849491915077 a41.32149460528471,41.32149460528471 0 0,0 -0.48630315871403434,0.5164371022387791 l -14.674488522399034 -14.057828054098353" fill="#ff0000" stroke="none" /><path d="M 115.16444852881244 114.52719865689866 l 34.89168289062071 33.42544292741608 a69.31862756570786,69.31862756570786 0 0,0 -0.8305467438877902,0.8522141264035042 l -34.312749345582105 -34.019479745887324" fill="#33ff4e" stroke="none" /><path d="M 114.91283532996324 114.78537596483092 l 30.78095491339877 30.517871409516324 a64.34521496945726,64.34521496945726 0 0,0 -0.7844235682454951,0.7777191335896286 l -30.252539425023308 -31.041770553334615" fill="#5eff2a" stroke="none" /><path d="M 114.13192950727249 115.5334660781643 l 24.805212564816514 27.265273842396798 a57.86046293912514,57.86046293912514 0 0,0 -0.7404347598063206,0.662101327966114 l -24.333512778186815 -27.6870707002463" fill="#c4ff1e" stroke="none" /><path d="M 113.59037401385872 116.0094264158162 l 20.89972863361844 24.619827778782376 a53.294497624452916,53.294497624452916 0 0,0 -0.702537370971261,0.5860816614716752 l -20.474016928485288 -24.97497162416592" fill="#ffeb16" stroke="none" /><path d="M 112.45986205192187 116.90419585922612 l 22.278706932658533 30.22534470370555 a58.54879818381819,58.54879818381819 0 0,0 -0.8141600423550978,0.5893890844329788 l -21.756565879929468 -30.6033345595116" fill="#b9ff1f" stroke="none" /><path d="M 111.8722381534696 117.32195027204791 l 23.415764772416424 34.16430059156388 a62.41856437381515,62.41856437381515 0 0,0 -0.8890297283744886,0.5981788773865173 l -22.82583875594493 -34.561229143007516" fill="#7bff26" stroke="none" /><path d="M 111.27062007382361 117.71928675628689 l 17.70110141254788 27.829071495322214 a53.98160413789875,53.98160413789875 0 0,0 -0.7861671871829998,0.4906264694759551 l -17.220770096575166 -28.128833761639715" fill="#fff717" stroke="none" /><line stroke="#e1ed5e" stroke-width="0.3" x1="143.1302829299769" x2="145.66735839644613" y1="173.24464959558577" y2="177.55315839532614" /><path d="M 143.63769802327073 174.10635135553383 a86.0,86.0 0 0,1 -40.68552437913181,11.842963189579606" fill="none" id="id114" stroke="none" /><text fill="#e1ed5e" style="font-size:6.75px; font-family:Arial;" text-anchor="middle"><textPath startOffset="21.407464694133747" xlink:href="#id114">June</textPath></text><path d="M 110.65571695917076 118.09573695890943 l 16.594832074301056 28.18165283898405 a53.704648114775196,53.704648114775196 0 0,0 -0.7984283643971268,0.46097283111331555 l -16.10861124204353 -28.46237256737354" fill="#fff216" stroke="none" /><path d="M 110.02825361518725 118.45085714620011 l 16.034479751809283 29.501636742236197 a54.5775387928008,54.5775387928008 0 0,0 -0.8270087262244022,0.44033556526274353 l -15.525682209798328 -29.77254277522151" fill="#fdff18" stroke="none" /><path d="M 109.06512990194946 118.94263497670748 l 11.678353507686149 24.40326724689041 a48.053713108807074,48.053713108807074 0 0,0 -0.7471466509717266,0.34970235830077845 l -11.257718142842915 -24.600145836761723" fill="#ff890c" stroke="none" /><path d="M 108.4095320186766 119.2426549942271 l 13.32275194477072 30.485063696473713 a54.2691272497484,54.2691272497484 0 0,0 -0.8568447189109112,0.3657360593666206 l -12.797472150689378 -30.709274405499738" fill="#fffc17" stroke="none" /><path d="M 107.74402155503746 119.51999308798841 l 12.56004282403495 31.65951274380388 a55.05993868045966,55.05993868045966 0 0,0 -0.8815561242750456,0.3410048468520576 l -12.014714437266374 -31.870457478793977" fill="#f4ff19" stroke="none" /><path d="M 107.06938296918513 119.77432235084164 l 11.091834909535349 31.025836331052908 a53.948919886722685,53.948919886722685 0 0,0 -0.874728372658791,0.30427593488642746 l -10.557600764831536 -31.211670698507927" fill="#fff617" stroke="none" /><path d="M 105.69591212413111 120.21278271476187 l 8.748631474577905 31.04580674585905 a53.25493247829241,53.25493247829241 0 0,0 -0.8820502860912891,0.240406727777581 l -8.214399787551923 -31.191413967780775" fill="#ffea16" stroke="none" /><path d="M 104.9986988182912 120.39639698878246 l 7.926822332078768 32.34414014963489 a54.301320008425584,54.301320008425584 0 0,0 -0.9072660571637091,0.21411231913323964 l -7.37042412117518 -32.475448612414354" fill="#fffd17" stroke="none" /><path d="M 104.29559338865022 120.5559693870025 l 6.752889562156163 32.31502112845675 a54.0130596578276,54.0130596578276 0 0,0 -0.9092288769651452,0.1818712398328498 l -6.197164199660059 -32.42618176495246" fill="#fff717" stroke="none" /><path d="M 103.58742460773223 120.69131181640829 l 5.842253674901773 33.69656667833524 a55.19927680389449,55.19927680389449 0 0,0 -0.9350297416355227,0.1538587881655738 l -5.262946430213178 -33.79189146499648" fill="#f2ff19" stroke="none" /><path d="M 102.875027216393 120.80226474461374 l 4.460104067633693 32.27109123504118 a53.57784305006202,53.57784305006202 0 0,0 -0.912155578364398,0.11809680161014988 l -3.9054706673785193 -32.342899632851726" fill="#fff016" stroke="none" /><path d="M 102.15924093988457 120.88869738790638 l 3.792303663042515 36.687097839381885 a57.882580101575115,57.882580101575115 0 0,0 -0.9892420605170065,0.09368225164205352 l -3.161962039140493 -36.74679184652912" fill="#c4ff1e" stroke="none" /><line stroke="#e1ed5e" stroke-width="0.3" x1="101.45913802915013" x2="101.54496967792366" y1="184.9874750549273" y2="189.98673829345242" /><path d="M 101.47630435890484 185.9873277026323 a86.0,86.0 0 0,1 -42.54439059252881,-10.42667462771756" fill="none" id="id115" stroke="none" /><text fill="#e1ed5e" style="font-size:6.75px; font-family:Arial;" text-anchor="middle"><textPath startOffset="22.145653131862474" xlink:href="#id115">July</textPath></text><path d="M 100.36049292484886 120.99690560180557 l 0.6409259961182215 37.330726099215006 a58.336227678049006,58.336227678049006 0 0,0 -1.0014189209670692,0.008595977028433273 l -4.572369171815953e-15 -37.336227678049006" fill="#bcff1f" stroke="none" /><path d="M 99.63950707515114 120.99690560180557 l -0.6468066703668056 37.67324589242442 a58.67879794977414,58.67879794977414 0 0,0 -1.0070027394015015,-0.02593681848234575 l 1.293422723839051 -37.656591356592024" fill="#b7ff1f" stroke="none" /><path d="M 98.19965949673042 120.92268563240118 l -2.8708661895175944 33.36381682625053 a54.48710417300536,54.48710417300536 0 0,0 -0.9312116894084658,-0.08818671516412532 l 3.4431774423110753 -33.30961835558122" fill="#feff18" stroke="none" /><path d="M 97.48249496171623 120.84855314841334 l -4.435845409394378 36.735163334151665 a58.00201277880497,58.00201277880497 0 0,0 -0.9874764734950643,-0.12784859946166935 l 5.065799704780237 -36.6536031384896" fill="#c2ff1e" stroke="none" /><path d="M 96.76829788921471 120.74984581791261 l -8.081562176918265 51.88942649735125 a73.51499052121608,73.51499052121608 0 0,0 -1.2452826662493977,-0.20491078884570418 l 8.971122346220726 -51.743049710009885" fill="#3aff93" stroke="none" /><path d="M 96.41257539226777 120.69131181640829 l -5.51757440984453 31.82390295764222 a53.298675310693476,53.298675310693476 0 0,0 -0.9001518514496568,-0.16403765296996858 l 6.063060994845244 -31.724497130740883" fill="#ffeb16" stroke="none" /><path d="M 96.05791012581884 120.62667999033965 l -6.945180527858235 36.34011927569927 a57.997835092564415,57.997835092564415 0 0,0 -0.9763065969913072,-0.195288662459195 l 7.567983610380501 -36.215541216577215" fill="#c2ff1e" stroke="none" /><path d="M 95.70440661134978 120.55596938700252 l -7.567531199252903 36.21337626555699 a57.99562337631942,57.99562337631942 0 0,0 -0.9727732487972129,-0.21201140196314555 l 8.188066864669253 -36.07813340546012" fill="#c2ff1e" stroke="none" /><path d="M 95.35216902796893 120.47920084513623 l -6.9688094056852306 30.70586007307757 a52.48672970253002,52.48672970253002 0 0,0 -0.876947895617303,-0.206957315560361 l 7.494889455042422 -30.58170661387098" fill="#ffdc14" stroke="none" /><path d="M 95.00130118170881 120.39639698878247 l -7.6883350163044915 31.37103051727987 a53.299412549441804,53.299412549441804 0 0,0 -0.8867872675700853,-0.2254178556616832 l 8.225727577099955 -31.234427429782926" fill="#ffeb16" stroke="none" /><path d="M 93.95794788825049 120.11202640906438 l -9.294567373675095 30.938591892755856 a53.30457322068013,53.30457322068013 0 0,0 -0.8740918618724322,-0.27079589317583225 l 9.82429986841916 -30.774479411773374" fill="#ffeb16" stroke="none" /><path d="M 92.93061703081489 119.77432235084164 l -12.017223046934447 33.61431164896096 a56.697837433004885,56.697837433004885 0 0,0 -0.9136744411942875,-0.3355139105162455 l 12.592486639782853 -33.40306688943599" fill="#d8ff1c" stroke="none" /><path d="M 92.25597844496254 119.51999308798841 l -10.710445614561836 26.9973195296086 a50.04425772930465,50.04425772930465 0 0,0 -0.7958122196065278,-0.3236499016509462 l 11.172312295358806 -26.809482371378362" fill="#ffaf10" stroke="none" /><path d="M 91.59046798132341 119.24265499422711 l -12.368469734633015 28.301479247775934 a51.88612586888852,51.88612586888852 0 0,0 -0.8130966000569869,-0.36368776703426353 l 12.852479737545636 -28.084987729831813" fill="#ffd113" stroke="none" /><path d="M 90.6110303473126 118.78422872680471 l -12.217944195919953 24.444072868187995 a48.32747443068786,48.32747443068786 0 0,0 -0.738887451572703,-0.37728119755455236 l 12.635758869206239 -24.230733718960607" fill="#ff8e0d" stroke="none" /><line stroke="#e1ed5e" stroke-width="0.3" x1="58.13341422392154" x2="55.67067388415222" y1="173.97424548756322" y2="178.32567169271397" /><path d="M 57.64086615596768 174.84453072859336 a86.0,86.0 0 0,1 -31.369924170532247,-30.572349798747897" fill="none" id="id116" stroke="none" /><text fill="#e1ed5e" style="font-size:6.75px; font-family:Arial;" text-anchor="middle"><textPath startOffset="22.145653131862474" xlink:href="#id116">August</textPath></text><path d="M 88.72937992617639 117.7192867562869 l -14.58425148645197 22.928865716487145 a48.1741287710347,48.1741287710347 0 0,0 -0.6939698146066173,-0.44982284952257484 l 14.975706933315598 -22.675129025260674" fill="#ff8b0c" stroke="none" /><path d="M 88.1277618465304 117.32195027204791 l -14.348550237718916 20.93496360845091 a46.38018115009244,46.38018115009244 0 0,0 -0.6528671057246342,-0.45575194401041946 l 14.705812434617316 -20.685566848635364" fill="#ff6809" stroke="none" /><path d="M 87.2517909369889 116.68781488649013 l -16.553994180225942 21.66970977226785 a48.269232569569596,48.269232569569596 0 0,0 -0.6541401699708976,-0.5086633527008148 l 16.92354429483207 -21.382345367946243" fill="#ff8d0d" stroke="none" /><path d="M 86.40962598614128 116.0094264158162 l -24.098764059564193 28.38828346668632 a58.2376834320219,58.2376834320219 0 0,0 -0.7565921472061874,-0.653526276781809 l 24.58253568653324 -27.97041305743979" fill="#beff1f" stroke="none" /><path d="M 86.13680546590413 115.77377054828092 l -25.76746293250226 29.31864274925812 a60.03261403796194,60.03261403796194 0 0,0 -0.7682315677721252,-0.6869574050527557 l 26.266959527097754 -28.871989814321985" fill="#a1ff22" stroke="none" /><path d="M 85.60350026404147 115.28858382429668 l -22.145817437348985 23.5180906788617 a53.303835981931805,53.303835981931805 0 0,0 -0.6607835769056816,-0.6330157191464101 l 22.54627350011998 -23.134462829409706" fill="#ffeb16" stroke="none" /><path d="M 85.34317274990678 115.03919595460226 l -26.226517166949495 26.910717043348203 a58.57681325625482,58.57681325625482 0 0,0 -0.7141017850780741,-0.7079983876923964 l 26.684610872157535 -26.45653864542715" fill="#b8ff1f" stroke="none" /><path d="M 84.58840730492382 114.26474011684316 l -23.702082369052324 21.938293589251263 a53.296709340697916,53.296709340697916 0 0,0 -0.6157097249340654,-0.6767728441708792 l 24.07518979482827 -21.52818316952271" fill="#ffeb16" stroke="none" /><path d="M 84.1078160697243 113.72728997021213 l -24.4397143632502 21.110443179200814 a53.29474337070236,53.29474337070236 0 0,0 -0.5920930173751502,-0.6974840856712102 l 24.79850194413246 -20.68779231108005" fill="#ffeb16" stroke="none" /><path d="M 83.4222238831116 112.89097897827486 l -25.494048826279517 19.824326566690733 a53.29474337070236,53.29474337070236 0 0,0 -0.5554023430518334,-0.7270394957095712 l 25.830603146685647 -19.383766157740293" fill="#ffeb16" stroke="none" /><path d="M 82.78059297857968 112.02048342749411 l -31.020080460733116 21.654425302446914 a58.830669131930634,58.830669131930634 0 0,0 -0.5709663885290152,-0.8330570244010821 l 31.387236586077453 -21.11873354297578" fill="#b4ff20" stroke="none" /><path d="M 82.37810715431573 111.42229804090323 l -27.102831660405407 17.567728035152367 a53.29842956444403,53.29842956444403 0 0,0 -0.49106205642112116,-0.7720311159336124 l 27.400411408452417 -17.099883244540084" fill="#ffeb16" stroke="none" /><path d="M 81.99639281039703 110.81064883170644 l -27.686334537965404 16.624848397044488 a53.294251878203475,53.294251878203475 0 0,0 -0.46423427464234746,-0.7883712896491771 l 27.96764252273752 -16.147125939101752" fill="#ffeb16" stroke="none" /><line stroke="#e1ed5e" stroke-width="0.3" x1="26.387840678322732" x2="22.057713659400548" y1="142.50000000000003" y2="145.00000000000006" /><path d="M 25.521815274538298 143.00000000000003 a86.0,86.0 0 0,1 -11.493303480769221,-40.785679425670985" fill="none" id="id117" stroke="none" /><text fill="#e1ed5e" style="font-size:6.75px; font-family:Arial;" text-anchor="middle"><textPath startOffset="21.40746469413373" xlink:href="#id117">September</textPath></text><path d="M 81.4637452351635 109.86951160357371 l -35.339792476503874 18.816448972011024 a61.03697895944016,61.03697895944016 0 0,0 -0.4844938993659273,-0.9290809349493552 l 35.65759444484475 -18.207021793957164" fill="#91ff24" stroke="none" /><path d="M 81.29705330413844 109.54985784667822 l -23.0907655850725 11.790309435956724 a46.92672080885623,46.92672080885623 0 0,0 -0.3601739491742874,-0.7205891693120794 l 23.289759447458525 -11.392188410480891" fill="#ff730a" stroke="none" /><path d="M 81.1358732173502 109.22738970284198 l -35.697336739868646 17.461356215825706 a60.73913450511386,60.73913450511386 0 0,0 -0.4501080563123111,-0.9405527226880497 l 35.99182405414087 -16.84599099107255" fill="#95ff23" stroke="none" /><path d="M 80.9802524753101 108.90220220490708 l -34.62678424829301 16.20708343703535 a59.23197275727292,59.23197275727292 0 0,0 -0.42312933766062083,-0.9246139654758789 l 34.899898050808694 -15.610280489344781" fill="#aeff20" stroke="none" /><path d="M 80.5471966667186 107.91128576633889 l -32.96350301537449 13.405969707617011 a56.585285650759474,56.585285650759474 0 0,0 -0.3582153738967767,-0.902936745821397 l 33.18877706423739 -12.838131944582049" fill="#daff1c" stroke="none" /><path d="M 80.28708602549918 107.23885506374661 l -30.320018351844457 11.133930714811891 a53.299658295691245,53.299658295691245 0 0,0 -0.3080208317848105,-0.8615890870585148 l 30.50667935367321 -10.611806671372454" fill="#ffeb16" stroke="none" /><path d="M 80.05021161711548 106.5578916946017 l -30.68248224538774 10.085941345594314 a53.2976923256957,53.2976923256957 0 0,0 -0.2782527450735272,-0.8716227608301225 l 30.85109970623852 -9.557749551072801" fill="#ffeb16" stroke="none" /><path d="M 79.83685265289637 105.86919833188381 l -31.011097112861695 9.026878408982103 a53.29818381819458,53.29818381819458 0 0,0 -0.24817032302045472,-0.8806689264416714 l 31.161485927956726 -8.493201558637436" fill="#ffeb16" stroke="none" /><path d="M 79.64726062577567 105.17358676015961 l -31.29602249762973 7.955326536753483 a53.29130292321015,53.29130292321015 0 0,0 -0.2177646913814352,-0.8885542532193994 l 31.427974715527455 -7.416916458925984" fill="#ffeb16" stroke="none" /><path d="M 79.2786578344484 103.40968896794605 l -31.880274984571418 5.245887116843805 a53.30899665317012,53.30899665317012 0 0,0 -0.14083350428209374,-0.9042521246302846 l 31.965629980991782 -4.69784681028207" fill="#ffeb16" stroke="none" /><path d="M 79.22317932658666 103.0534771498775 l -31.95833594419769 4.696774838057291 a53.3016242656868,53.3016242656868 0 0,0 -0.12527273495358984,-0.9064111055810847 l 32.03425319570649 -4.147475424276121" fill="#ffeb16" stroke="none" /><path d="M 79.13060592940153 102.33845913500099 l -32.10366042023219 3.5972821119146445 a53.30457322068013,53.30457322068013 0 0,0 -0.0940891904322126,-0.910227566598774 l 32.16068200314607 -3.0456500230329393" fill="#ffeb16" stroke="none" /><path d="M 79.06263194458094 101.62068470465958 l -32.20504051232702 2.492873814565309 a53.301378519437364,53.301378519437364 0 0,0 -0.06278404614344357,-0.9128662517216228 l 32.24308851963552 -1.9396641386893427" fill="#ffeb16" stroke="none" /><line stroke="#e1ed5e" stroke-width="0.3" x1="15.003131293944662" x2="10.003315487706104" y1="100.72959589197737" y2="100.7725132973878" /><path d="M 14.003168132696942 100.73817937305945 a86.0,86.0 0 0,1 10.791469493833604,-42.45332614584628" fill="none" id="id118" stroke="none" /><text fill="#e1ed5e" style="font-size:6.75px; font-family:Arial;" text-anchor="middle"><textPath startOffset="22.145653131862435" xlink:href="#id118">October</textPath></text><path d="M 79.00696218219943 99.45929381324524 l -32.29288054611491 -0.8317500521344833 a53.30359023568236,53.30359023568236 0 0,0 0.031411838731342595,-0.9145214113407861 l 32.27384402038672 1.3859777280394079" fill="#ffeb16" stroke="none" /><path d="M 79.01933749520258 99.09900007780938 l -32.26009490272963 -1.3853872817684003 a53.28982844571348,53.28982844571348 0 0,0 0.04709402448021366,-0.9136114936463288 l 32.231559288792845 1.938970568791441" fill="#ffeb16" stroke="none" /><path d="M 79.17382384314186 97.30363454192245 l -39.38704808713826 -5.0994419310539945 a60.71578861141666,60.71578861141666 0 0,0 0.14269795712610825,-1.0324913328566718 l 39.29370561345694 5.774821572110733" fill="#96ff23" stroke="none" /><path d="M 79.407916724674 95.88100663000787 l -36.984011947135116 -7.397838187090743 a58.716642872188544,58.716642872188544 0 0,0 0.20618569800491948,-0.9866732050164373 l 36.85156853830583 8.03162784339259" fill="#b6ff1f" stroke="none" /><path d="M 79.56144815229197 95.17655741523228 l -31.441129399352945 -7.42002092849047 a53.304818966929574,53.304818966929574 0 0,0 0.21781992210253184,-0.8887796134090059 l 31.309121950734117 7.958656366507594" fill="#ffeb16" stroke="none" /><path d="M 79.83685265289637 94.1308016681162 l -31.010153299940264 -9.02660367879594 a53.297200833196804,53.297200833196804 0 0,0 0.263246752567847,-0.8762628229321914 l 30.850630227368786 9.557604105318855" fill="#ffeb16" stroke="none" /><path d="M 80.16572619554312 93.10060997987247 l -30.509464609900586 -10.612775528070102 a53.30260725068458,53.30260725068458 0 0,0 0.3080378739122647,-0.8616367569221073 l 30.32278656594438 11.134947241373132" fill="#ffeb16" stroke="none" /><path d="M 80.5471966667186 92.08871423366112 l -34.507361842419634 -14.033843652280884 a58.251936714489666,58.251936714489666 0 0,0 0.3846684822855407,-0.9230643238412874 l 34.26136751559761 14.624140485563437" fill="#beff1f" stroke="none" /><path d="M 81.1358732173502 90.77261029715801 l -34.86002505303607 -17.05178511157221 a59.80701898097222,59.80701898097222 0 0,0 0.4590333576142846,-0.9183742094843939 l 34.56217178221004 17.647691177220377" fill="#a4ff21" stroke="none" /><path d="M 81.29705330413844 90.45014215332179 l -36.472431322564844 -18.62308330966365 a61.951892246120714,61.951892246120714 0 0,0 0.4917562166267766,-0.9430073858694531 l 36.147367036963125 19.246436938637586" fill="#82ff25" stroke="none" /><path d="M 81.63589988554816 89.8137432299009 l -28.24006361364145 -15.66428724411641 a53.29351463945515,53.29351463945515 0 0,0 0.45062619336726,-0.7962133055120608 l 27.967004055252822 16.146757319727577" fill="#ffeb16" stroke="none" /><line stroke="#e1ed5e" stroke-width="0.3" x1="26.387840678322718" x2="22.05771365940052" y1="57.49999999999999" y2="54.99999999999999" /><path d="M 25.521815274538284 56.99999999999999 a86.0,86.0 0 0,1 29.574782752854787,-30.34633250058573" fill="none" id="id119" stroke="none" /><text fill="#e1ed5e" style="font-size:6.75px; font-family:Arial;" text-anchor="middle"><textPath startOffset="21.40746469413373" xlink:href="#id119">November</textPath></text><path d="M 81.99639281039701 89.18935116829357 l -27.689916129490964 -16.62699903984806 a53.29842956444403,53.29842956444403 0 0,0 0.4777367565831505,-0.7803470885674703 l 27.40041140845242 17.099883244540074" fill="#ffeb16" stroke="none" /><path d="M 82.18462484594161 88.88188828441811 l -34.73366463292411 -21.676375621673884 a61.94255388864184,61.94255388864184 0 0,0 0.5707042053791491,-0.8972418023049668 l 34.35644273591907 22.269431098657524" fill="#82ff25" stroke="none" /><path d="M 82.576782715395 88.27688183743585 l -35.42385108979419 -23.834747929457908 a63.69595337842582,63.69595337842582 0 0,0 0.618185191516976,-0.9019506691115386 l 35.009476161461905 24.439333333639482" fill="#68ff28" stroke="none" /><path d="M 82.98947788004972 87.6856937992154 l -26.158748827495344 -18.936916845920667 a53.29376038570459,53.29376038570459 0 0,0 0.5428298912040997,-0.7364530009175456 l 25.829816916707426 19.383176156107076" fill="#ffeb16" stroke="none" /><path d="M 83.2033758604659 87.39550010848427 l -25.82549265182726 -19.37993114712431 a53.28835396821682,53.28835396821682 0 0,0 0.555335756951811,-0.7269523323672026 l 25.489004917521143 19.8204043927324" fill="#ffea16" stroke="none" /><path d="M 83.42222388311158 87.10902102172516 l -25.501614689417107 -19.830209827628224 a53.304327474430686,53.304327474430686 0 0,0 0.5679032118145452,-0.7175271561934369 l 25.157445046960998 20.265056927736342" fill="#ffeb16" stroke="none" /><path d="M 83.64595745247003 86.82634096563983 l -25.15189507582005 -20.26058626384704 a53.297200833196804,53.297200833196804 0 0,0 0.5800592750526036,-0.7075779992453549 l 24.80038898152882 20.689366544790886" fill="#ffeb16" stroke="none" /><path d="M 84.10781606972428 86.27271002978789 l -24.43841254838476 -21.10931870252573 a53.29302314695625,53.29302314695625 0 0,0 0.6039595179606772,-0.6871950641197114 l 24.07244196646549 21.525726044456743" fill="#ffeb16" stroke="none" /><path d="M 84.58840730492382 85.73525988315684 l -30.055617593323138 -27.819030940063037 a61.95410396236572,61.95410396236572 0 0,0 0.7291235890664394,-0.7743039845908802 l 29.573638170520425 28.330876384598426" fill="#82ff25" stroke="none" /><path d="M 85.34317274990677 84.96080404539775 l -38.11231320665465 -39.106590861566474 a75.60653685023522,75.60653685023522 0 0,0 0.9372600852645377,-0.8978739600025568 l 37.43538063552481 39.7550769518746" fill="#3effb4" stroke="none" /><path d="M 85.86807049272753 84.46653392183569 l -25.719734648922756 -28.27049381351869 a59.21943969855126,59.21943969855126 0 0,0 0.7578254542344731,-0.6776521941601072 l 25.23064416786489 28.707841537562196" fill="#aeff20" stroke="none" /><path d="M 86.40962598614128 83.9905735841838 l -20.903863603594804 -24.62469876301731 a53.30088702693847,53.30088702693847 0 0,0 0.7026215971901479,-0.58615192597908 l 20.478067672242748 24.979912872908272" fill="#ffeb16" stroke="none" /><path d="M 87.25179093698888 83.31218511350988 l -19.60357512045197 -25.66170911588699 a53.29277740070682,53.29277740070682 0 0,0 0.7317530036256389,-0.5491210958937148 l 19.16016912791558 25.994449239044705" fill="#ffeb16" stroke="none" /><path d="M 87.83215693770416 82.88440491214696 l -22.15013339255832 -31.15693655383399 a59.22804081728181,59.22804081728181 0 0,0 0.8337190288451948,-0.5820006320167458 l 21.61201927253936 31.532582001655864" fill="#aeff20" stroke="none" /><path d="M 88.72937992617638 82.28071324371311 l -21.96698639941512 -34.53575123934055 a61.930020829920196,61.930020829920196 0 0,0 0.9019248511709884,-0.5628678132042759 l 21.370897419454433 34.90775484938636" fill="#83ff25" stroke="none" /><path d="M 89.03521579738668 82.08984904055464 l -29.809985782853197 -48.69237146888598 a78.09275165586163,78.09275165586163 0 0,0 1.1493291184343817,-0.6901391127120479 l 28.969723907861383 49.19692458213395" fill="#42ffda" stroke="none" /><line stroke="#e1ed5e" stroke-width="0.3" x1="56.869717070023135" x2="54.33264160355391" y1="26.7553504044142" y2="22.446841604673864" /><path d="M 56.362301976729285 25.89364864446614 a86.0,86.0 0 0,1 42.16139366436587,-11.88097634709845" fill="none" id="id120" stroke="none" /><text fill="#e1ed5e" style="font-size:6.75px; font-family:Arial;" text-anchor="middle"><textPath startOffset="22.145653131862474" xlink:href="#id120">December</textPath></text><path d="M 89.34428304082924 81.90426304109057 l -20.59480970690197 -34.97448933777752 a61.58769630444449,61.58769630444449 0 0,0 0.9156258415892283,-0.5286368261185158 l 19.991391397452343 35.32287306117221" fill="#88ff25" stroke="none" /><path d="M 89.97174638481275 81.54914285379989 l -18.202922075181277 -33.4913263804917 a59.11843799002972,59.11843799002972 0 0,0 0.8958165791264794,-0.4769718713153648 l 17.625316680268238 33.79886871952964" fill="#b0ff20" stroke="none" /><path d="M 90.28995756902619 81.37971332152246 l -18.60002522489919 -35.66800087399849 a61.226449317761606,61.226449317761606 0 0,0 0.9361021993841077,-0.4779804529977742 l 17.984995803801503 35.98203927866909" fill="#8eff24" stroke="none" /><path d="M 90.61103034731259 81.2157712731953 l -18.309446705858587 -36.63115842382619 a61.95213799237017,61.95213799237017 0 0,0 0.9553602345300974,-0.4673145644205363 l 17.677926222066436 36.94006673834394" fill="#82ff25" stroke="none" /><path d="M 92.592206182469 80.34994680014964 l -13.922446299348959 -36.93094289514789 a60.46807639197697,60.46807639197697 0 0,0 0.9744310966500943,-0.35782459596698696 l 13.286426051044737 37.1644983401236" fill="#9aff23" stroke="none" /><path d="M 94.30408787586887 79.78721728523814 l -10.100389120532245 -35.84271775593898 a58.23866641701968,58.23866641701968 0 0,0 0.9645948268857344,-0.2629046094303691 l 9.483612892711834 36.01082285951349" fill="#beff1f" stroke="none" /><path d="M 97.12497278360702 79.19773525538626 l -5.754697325521967 -41.63812314821074 a63.03391298242328,63.03391298242328 0 0,0 1.0731438982962918,-0.13893996272379008 l 5.03907560533488 41.73077470713492" fill="#72ff27" stroke="none" /><path d="M 98.9189461498227 79.02784411241856 l -1.9162664352236936 -37.17505690864557 a58.224413134551924,58.224413134551924 0 0,0 0.9986158912000409,-0.04288486314785566 l 1.2778247834228325 37.202474340219254" fill="#beff1e" stroke="none" /></svg>